<?xml version="1.0" encoding="UTF-8" standalone="no"?>
<!-- Created with Inkscape (http://www.inkscape.org/) -->

<svg
   width="210mm"
   height="210mm"
   viewBox="0 0 210 210"
   version="1.1"
   id="svg1"
   inkscape:version="1.3.2 (091e20e, 2023-11-25, custom)"
   sodipodi:docname="panpangis.svg"
   xmlns:inkscape="http://www.inkscape.org/namespaces/inkscape"
   xmlns:sodipodi="http://sodipodi.sourceforge.net/DTD/sodipodi-0.dtd"
   xmlns:xlink="http://www.w3.org/1999/xlink"
   xmlns="http://www.w3.org/2000/svg"
   xmlns:svg="http://www.w3.org/2000/svg">
  <sodipodi:namedview
     id="namedview1"
     pagecolor="#ffffff"
     bordercolor="#000000"
     borderopacity="0.25"
     inkscape:showpageshadow="2"
     inkscape:pageopacity="0.0"
     inkscape:pagecheckerboard="0"
     inkscape:deskcolor="#d1d1d1"
     inkscape:document-units="mm"
     inkscape:zoom="1.624025"
     inkscape:cx="396.8535"
     inkscape:cy="314.95821"
     inkscape:window-width="3840"
     inkscape:window-height="2054"
     inkscape:window-x="-11"
     inkscape:window-y="-11"
     inkscape:window-maximized="1"
     inkscape:current-layer="layer1" />
  <defs
     id="defs1">
    <linearGradient
       id="swatch4"
       inkscape:swatch="solid">
      <stop
         style="stop-color:#cf573d;stop-opacity:0;"
         offset="0"
         id="stop4" />
    </linearGradient>
    <linearGradient
       inkscape:collect="always"
       xlink:href="#swatch4"
       id="linearGradient4"
       x1="51.310848"
       y1="62.041019"
       x2="153.61935"
       y2="62.041019"
       gradientUnits="userSpaceOnUse" />
  </defs>
  <g
     inkscape:label="图层 1"
     inkscape:groupmode="layer"
     id="layer1">
    <ellipse
       style="fill:#fffefe;fill-opacity:0;stroke:#050505;stroke-width:10;stroke-dasharray:none;stroke-opacity:1"
       id="path1"
       cx="105.00146"
       cy="105.00018"
       rx="98.420845"
       ry="98.257927" />
    <path
       d="m 87.165946,35.490515 1.411013,16.194603 h -1.411013 q -2.096363,-6.01622 -5.523112,-9.118924 -4.918391,-4.42703 -12.537866,-4.42703 -10.441503,0 -15.883984,7.756762 -4.555559,6.545948 -4.555559,15.589196 0,7.340545 3.023601,13.394601 1.330385,2.686488 3.18486,4.843246 1.854476,2.156757 4.152412,3.670272 2.297937,1.513515 4.958706,2.345947 2.701084,0.832433 5.68437,0.832433 3.023601,0 5.805314,-0.718919 2.822028,-0.71892 5.482797,-2.11892 v -14.83244 q 0,-1.967568 -0.161259,-3.140542 Q 80.634967,64.549988 80.31245,63.831069 80.030248,63.11215 79.506156,62.733772 79.022381,62.355393 78.377345,62.05269 77.087276,61.409446 73.781471,61.409446 v -1.437838 h 21.165208 v 1.437838 h -1.007867 q -1.370698,0 -2.338251,0.302703 -0.967552,0.264866 -1.612587,1.05946 -0.604721,0.794596 -0.886923,2.270272 -0.282203,1.475676 -0.282203,3.859461 v 15.70271 q -2.418881,1.210812 -4.676503,2.081083 -2.257622,0.832432 -4.595874,1.362162 -2.297937,0.567568 -4.757133,0.832433 -2.41888,0.264865 -5.160279,0.264865 -15.84367,0 -24.067865,-9.53514 -6.168146,-7.151355 -6.168146,-16.497305 0,-2.610812 0.564405,-5.221624 0.564406,-2.64865 1.612588,-5.145948 1.048182,-2.497299 2.580139,-4.76757 1.531958,-2.30811 3.426748,-4.237841 4.031468,-4.23784 9.191748,-6.243245 5.200594,-2.005407 11.570314,-2.005407 1.894789,0 3.305803,0.151351 1.411014,0.113514 2.741399,0.416217 1.330384,0.264865 2.781713,0.756757 1.491643,0.454054 3.507377,1.135135 2.217308,0.794596 3.023601,0.794596 0.765979,0 1.29007,-0.643244 0.564405,-0.681082 0.685349,-2.610812 z m 34.428734,51.081106 v 1.4 H 98.171853 v -1.4 h 1.935107 q 3.42675,0 4.91839,-1.854056 0.96755,-1.172972 0.96755,-5.827029 V 45.744574 q 0,-1.816217 -0.0806,-2.951353 -0.0806,-1.135135 -0.32251,-1.854055 -0.20158,-0.756757 -0.64504,-1.172973 -0.40315,-0.416217 -1.12881,-0.794595 -1.77385,-0.908109 -3.70895,-0.908109 h -1.935117 v -1.400001 h 23.422827 v 1.400001 h -1.97541 q -3.38644,0 -4.87809,1.854056 -1.00786,1.172972 -1.00786,5.827029 v 33.145962 q 0,1.816218 0.0806,2.951353 0.0806,1.135135 0.28221,1.854055 0.24188,0.718919 0.68534,1.172973 0.44346,0.416217 1.16913,0.794595 1.73353,0.908109 3.66864,0.908109 z M 161.4659,35.490515 V 53.23647 h -1.49164 q -0.72567,-5.108111 -2.62046,-8.13514 -0.92723,-1.513513 -2.33824,-2.724325 -1.37071,-1.210811 -3.0236,-2.043244 -1.6126,-0.870271 -3.46707,-1.324326 -1.81416,-0.491891 -3.66864,-0.491891 -2.05605,0 -3.82989,0.681081 -1.77385,0.643243 -3.10423,1.740541 -1.29007,1.097298 -2.01573,2.535137 -0.72567,1.4 -0.72567,2.913515 0,2.11892 1.04818,3.70811 1.04818,1.551352 2.86234,2.875676 1.85448,1.324326 4.31367,2.572975 2.49951,1.248649 5.40217,2.686487 3.26549,1.627028 6.20847,3.17838 2.94297,1.551352 5.16028,3.443245 2.25762,1.854056 3.588,4.275678 1.33039,2.383785 1.33039,5.751354 0,2.875678 -1.29008,5.48649 -1.24975,2.572973 -3.54769,4.540543 -2.25762,1.92973 -5.44248,3.064865 -3.14455,1.172974 -6.93413,1.172974 -1.41101,0 -2.41888,-0.03784 -1.00786,-0.03784 -1.9351,-0.18919 -0.92724,-0.113513 -1.93511,-0.416217 -0.96754,-0.264864 -2.33825,-0.756756 -0.96755,-0.340541 -1.97542,-0.605407 -1.00786,-0.302702 -1.85447,-0.491891 -0.84661,-0.18919 -1.45133,-0.302703 -0.5644,-0.113514 -0.72566,-0.113514 -1.00788,0 -1.6126,0.567568 -0.5644,0.567568 -0.84661,2.345947 h -1.49163 V 71.549992 h 1.49163 q 0.5241,2.762163 1.20945,4.843246 0.72566,2.043244 1.61259,3.443245 0.88693,1.362162 2.29794,2.535136 1.41101,1.172974 3.14454,2.043244 1.77385,0.832432 3.78958,1.324325 2.05605,0.454054 4.19273,0.454054 2.53982,0 4.55555,-0.681081 2.01574,-0.681082 3.42676,-1.816217 1.41101,-1.172974 2.13667,-2.686488 0.76598,-1.551353 0.76598,-3.216218 0,-2.45946 -1.0885,-4.124326 -1.08849,-1.702703 -2.94297,-3.027029 -1.81416,-1.324325 -4.27335,-2.535136 -2.41888,-1.210811 -5.11997,-2.724326 -3.06391,-1.702703 -5.92625,-3.216217 -2.82204,-1.551352 -4.99903,-3.36757 -2.17699,-1.854054 -3.50737,-4.200002 -1.29008,-2.345947 -1.29008,-5.600003 0,-2.724325 1.20944,-5.183786 1.20945,-2.45946 3.34612,-4.313516 2.13669,-1.854054 5.03934,-2.913514 2.94297,-1.097298 6.41004,-1.097298 4.27335,0 9.23206,2.005407 2.17699,0.945946 3.18485,0.945946 1.04819,0 1.69322,-0.567568 0.68536,-0.605406 1.0885,-2.383785 z"
       id="text3"
       style="font-size:79.988px;font-family:'Mongolian Baiti';-inkscape-font-specification:'Mongolian Baiti, Normal';fill:#ffe700;stroke:#ff2100;stroke-width:1.39569"
       aria-label="GIS" />
    <text
       xml:space="preserve"
       style="font-style:normal;font-variant:normal;font-weight:normal;font-stretch:normal;font-size:19.7556px;font-family:Sans;-inkscape-font-specification:'Sans, Normal';font-variant-ligatures:normal;font-variant-caps:normal;font-variant-numeric:normal;font-variant-east-asian:normal;fill:#000000;fill-opacity:0;stroke:#0889eb;stroke-width:1;stroke-dasharray:none;stroke-opacity:1"
       x="111.59901"
       y="61.583103"
       id="text4"><tspan
         sodipodi:role="line"
         id="tspan4"
         style="stroke-width:1"
         x="111.59901"
         y="61.583103" /></text>
    <path
       style="fill:#0b0f12;fill-opacity:1;stroke:#000000;stroke-width:3.34871;stroke-dasharray:none;stroke-dashoffset:0;stroke-opacity:1"
       d="m 16.463307,106.04661 c 176.222063,0.19061 176.420913,0.18914 176.420913,0.18914"
       id="path4" />
    <path
       d="m 56.678424,166.79304 v 5.31551 q 0,1.72251 0.517411,2.13968 0.7022,0.59211 2.125079,0.59211 h 0.960906 v 0.4979 H 49.545548 v -0.4979 h 0.942427 q 0.776117,0 1.348964,-0.1884 0.591326,-0.1884 0.923948,-0.5652 0.369578,-0.43062 0.369578,-1.97819 v -11.78834 q 0,-1.70903 -0.498931,-2.13966 -0.72068,-0.59211 -2.143559,-0.59211 h -0.942427 v -0.49791 h 9.184041 q 3.34469,0 5.303457,0.51136 0.960907,0.25569 1.792459,0.68632 0.831554,0.43062 1.459837,1.02273 0.628286,0.57865 0.979385,1.29187 0.369579,0.71322 0.369579,1.5341 0,1.11694 -0.51741,2.04547 -0.517411,0.91508 -1.515275,1.58792 -0.979384,0.6594 -2.420742,1.03619 -1.441359,0.36334 -3.289253,0.36334 -1.847896,0 -4.213202,-0.37679 z m 0,-0.76706 q 0.997863,0.13458 1.737022,0.20186 0.757637,0.0673 1.293526,0.0673 0.960906,0 1.810937,-0.2826 0.868511,-0.29605 1.496795,-0.80742 0.646764,-0.52482 1.016342,-1.23805 0.388059,-0.71322 0.388059,-1.56101 0,-0.99582 -0.406537,-1.77632 -0.406536,-0.79397 -1.127216,-1.33225 -0.720679,-0.55174 -1.700064,-0.83433 -0.960905,-0.2826 -2.088121,-0.2826 -0.480453,0 -1.090258,0.0673 -0.591327,0.0538 -1.330485,0.18839 z m 24.059595,7.53594 q -2.605532,1.48027 -3.270774,1.69558 -0.979384,0.33642 -2.12508,0.33642 -0.86851,0 -1.607668,-0.22876 -0.739158,-0.22877 -1.275047,-0.64593 -0.535891,-0.41717 -0.850033,-0.99583 -0.295663,-0.59211 -0.295663,-1.30532 0,-0.52483 0.184789,-0.96891 0.203269,-0.44409 0.591328,-0.83434 0.388057,-0.40371 0.979384,-0.76705 0.609805,-0.36334 1.42288,-0.71322 1.903332,-0.82088 6.245884,-1.96473 v -0.48445 q 0,-0.92854 -0.221747,-1.54755 -0.203269,-0.61903 -0.609805,-0.98237 -0.388058,-0.37679 -0.979385,-0.52482 -0.591326,-0.16149 -1.330484,-0.16149 -0.591326,0 -1.071779,0.13457 -0.461974,0.12112 -0.794595,0.33643 -0.332621,0.20185 -0.517411,0.48446 -0.16631,0.26914 -0.16631,0.55173 l 0.03696,0.7805 q 0,0.61903 -0.443495,0.95546 -0.425015,0.33642 -1.127216,0.33642 -0.683721,0 -1.127216,-0.34988 -0.425015,-0.34989 -0.425015,-0.95544 0,-0.56521 0.406537,-1.11694 0.425016,-0.55174 1.201132,-0.99582 0.794595,-0.44408 1.940289,-0.71322 1.164174,-0.26914 2.64249,-0.26914 1.95877,0 3.326212,0.41717 1.367443,0.41716 1.977248,1.4399 0.332621,0.59211 0.332621,2.36842 v 4.18514 q 0,0.88817 0.01848,1.42645 0.03696,0.53827 0.07392,0.74013 0.0924,0.39025 0.295663,0.52482 0.221747,0.13457 0.498932,0.13457 0.184789,0 0.3511,-0.0404 0.166311,-0.0404 0.388057,-0.16148 0.221748,-0.12112 0.517412,-0.32297 0.295663,-0.21531 0.757636,-0.55174 v 0.75359 q -2.088121,2.01856 -3.954495,2.01856 -0.88699,0 -1.441359,-0.45754 -0.554368,-0.45754 -0.554368,-1.56102 z m 0,-0.8747 v -4.69651 q -1.404399,0.40371 -2.309868,0.68632 -0.88699,0.28259 -1.293527,0.45753 -1.459838,0.60557 -2.088121,1.25151 -0.628285,0.63247 -0.628285,1.39952 0,0.48445 0.203269,0.90163 0.221747,0.4037 0.572847,0.71322 0.369579,0.29605 0.850033,0.47099 0.480452,0.16149 0.997862,0.16149 1.404401,0 3.69579,-1.3457 z m 12.140672,-7.42828 q 2.975112,-2.61066 5.673039,-2.61066 0.942426,0 1.73702,0.22876 0.7946,0.22878 1.38592,0.76706 0.59132,0.53828 0.92395,1.42644 0.33262,0.88816 0.33262,2.22041 v 5.2617 q 0,0.79396 0.11087,1.2515 0.12935,0.45754 0.42502,0.69976 0.29566,0.22876 0.79459,0.29605 0.49893,0.0538 1.25657,0.0538 v 0.48445 h -8.370961 v -0.48445 h 0.3511 q 0.831554,0 1.293527,-0.10766 0.480453,-0.10765 0.720678,-0.36333 0.240227,-0.26914 0.295665,-0.71323 0.07392,-0.44408 0.07392,-1.11693 v -5.04638 q 0,-1.68212 -0.609805,-2.43572 -0.591327,-0.76705 -2.014206,-0.76705 -2.198995,0 -4.379512,1.74941 v 6.49974 q 0,1.22459 0.203269,1.54755 0.129352,0.20186 0.277184,0.34989 0.166311,0.14803 0.425016,0.24222 0.277184,0.0808 0.7022,0.12111 0.443494,0.0404 1.145696,0.0404 v 0.48444 h -8.370966 v -0.48444 h 0.369579 q 0.665242,0 1.090259,-0.10767 0.425015,-0.10765 0.665242,-0.37678 0.258705,-0.26915 0.3511,-0.69977 0.0924,-0.44409 0.0924,-1.11693 v -4.57539 q 0,-2.19349 -0.147831,-2.70486 -0.129353,-0.48446 -0.425017,-0.6594 -0.277183,-0.17493 -0.757635,-0.17493 -0.517411,0 -1.238091,0.20185 l -0.277184,-0.48446 5.10019,-1.50718 h 0.794596 z m 20.567069,1.5341 v 5.31551 q 0,1.72251 0.51741,2.13968 0.7022,0.59211 2.12508,0.59211 h 0.96091 v 0.4979 h -10.73628 v -0.4979 h 0.94243 q 0.77611,0 1.34897,-0.1884 0.59133,-0.1884 0.92394,-0.5652 0.36959,-0.43062 0.36959,-1.97819 v -11.78834 q 0,-1.70903 -0.49894,-2.13966 -0.72068,-0.59211 -2.14356,-0.59211 h -0.94243 v -0.49791 h 9.18405 q 3.34469,0 5.30345,0.51136 0.96091,0.25569 1.79246,0.68632 0.83156,0.43062 1.45984,1.02273 0.62828,0.57865 0.97938,1.29187 0.36959,0.71322 0.36959,1.5341 0,1.11694 -0.51741,2.04547 -0.51742,0.91508 -1.51528,1.58792 -0.97939,0.6594 -2.42075,1.03619 -1.44136,0.36334 -3.28925,0.36334 -1.84789,0 -4.2132,-0.37679 z m 0,-0.76706 q 0.99786,0.13458 1.73703,0.20186 0.75763,0.0673 1.29352,0.0673 0.96091,0 1.81094,-0.2826 0.86851,-0.29605 1.49679,-0.80742 0.64676,-0.52482 1.01634,-1.23805 0.38806,-0.71322 0.38806,-1.56101 0,-0.99582 -0.40653,-1.77632 -0.40655,-0.79397 -1.12722,-1.33225 -0.72068,-0.55174 -1.70007,-0.83433 -0.9609,-0.2826 -2.08812,-0.2826 -0.48045,0 -1.09026,0.0673 -0.59132,0.0538 -1.33048,0.18839 z m 24.0596,7.53594 q -2.60554,1.48027 -3.27078,1.69558 -0.97939,0.33642 -2.12507,0.33642 -0.86851,0 -1.60768,-0.22876 -0.73916,-0.22877 -1.27505,-0.64593 -0.53588,-0.41717 -0.85002,-0.99583 -0.29567,-0.59211 -0.29567,-1.30532 0,-0.52483 0.18479,-0.96891 0.20326,-0.44409 0.59133,-0.83434 0.38805,-0.40371 0.97939,-0.76705 0.6098,-0.36334 1.42287,-0.71322 1.90334,-0.82088 6.24589,-1.96473 v -0.48445 q 0,-0.92854 -0.22175,-1.54755 -0.20327,-0.61903 -0.6098,-0.98237 -0.38807,-0.37679 -0.97939,-0.52482 -0.59133,-0.16149 -1.33049,-0.16149 -0.59132,0 -1.07177,0.13457 -0.46198,0.12112 -0.7946,0.33643 -0.33262,0.20185 -0.51742,0.48446 -0.16631,0.26914 -0.16631,0.55173 l 0.037,0.7805 q 0,0.61903 -0.4435,0.95546 -0.42501,0.33642 -1.12721,0.33642 -0.68372,0 -1.12721,-0.34988 -0.42501,-0.34989 -0.42501,-0.95544 0,-0.56521 0.40653,-1.11694 0.42501,-0.55174 1.20113,-0.99582 0.79459,-0.44408 1.94028,-0.71322 1.16418,-0.26914 2.6425,-0.26914 1.95877,0 3.32621,0.41717 1.36744,0.41716 1.97725,1.4399 0.33262,0.59211 0.33262,2.36842 v 4.18514 q 0,0.88817 0.0185,1.42645 0.037,0.53827 0.074,0.74013 0.0924,0.39025 0.29566,0.52482 0.22176,0.13457 0.49893,0.13457 0.18478,0 0.3511,-0.0404 0.16631,-0.0404 0.38806,-0.16148 0.22175,-0.12112 0.51741,-0.32297 0.29567,-0.21531 0.75764,-0.55174 v 0.75359 q -2.08812,2.01856 -3.9545,2.01856 -0.88699,0 -1.44136,-0.45754 -0.55436,-0.45754 -0.55436,-1.56102 z m 0,-0.8747 v -4.69651 q -1.4044,0.40371 -2.30988,0.68632 -0.88698,0.28259 -1.29352,0.45753 -1.45984,0.60557 -2.08813,1.25151 -0.62827,0.63247 -0.62827,1.39952 0,0.48445 0.20326,0.90163 0.22175,0.4037 0.57285,0.71322 0.36958,0.29605 0.85004,0.47099 0.48045,0.16149 0.99786,0.16149 1.4044,0 3.69579,-1.3457 z m 12.14067,-7.42828 q 2.97511,-2.61066 5.67304,-2.61066 0.94242,0 1.73702,0.22876 0.7946,0.22878 1.38592,0.76706 0.59133,0.53828 0.92394,1.42644 0.33263,0.88816 0.33263,2.22041 v 5.2617 q 0,0.79396 0.11087,1.2515 0.12936,0.45754 0.42502,0.69976 0.29566,0.22876 0.79459,0.29605 0.49893,0.0538 1.25657,0.0538 v 0.48445 h -8.37097 v -0.48445 h 0.35111 q 0.83154,0 1.29352,-0.10766 0.48047,-0.10765 0.72069,-0.36333 0.24023,-0.26914 0.29566,-0.71323 0.074,-0.44408 0.074,-1.11693 v -5.04638 q 0,-1.68212 -0.6098,-2.43572 -0.59133,-0.76705 -2.01421,-0.76705 -2.199,0 -4.37952,1.74941 v 6.49974 q 0,1.22459 0.20328,1.54755 0.12935,0.20186 0.27718,0.34989 0.1663,0.14803 0.42502,0.24222 0.27718,0.0808 0.7022,0.12111 0.44349,0.0404 1.14569,0.0404 v 0.48444 h -8.37096 v -0.48444 h 0.36957 q 0.66525,0 1.09026,-0.10767 0.42502,-0.10765 0.66524,-0.37678 0.25871,-0.26915 0.35111,-0.69977 0.0924,-0.44409 0.0924,-1.11693 v -4.57539 q 0,-2.19349 -0.14784,-2.70486 -0.12934,-0.48446 -0.42501,-0.6594 -0.27719,-0.17493 -0.75764,-0.17493 -0.5174,0 -1.23808,0.20185 l -0.27719,-0.48446 5.10019,-1.50718 h 0.7946 z"
       id="text5"
       style="font-size:36.85px;font-family:'Mongolian Baiti';-inkscape-font-specification:'Mongolian Baiti, Normal';fill:#042ff2;stroke:#c68e37;stroke-width:0.485335"
       aria-label="PanPan" />
    <path
       d="m 66.365327,128.51616 h 10.774616 v -4.0388 h -6.212949 q -1.444872,0.0356 -4.004359,0.28467 v -3.38049 q 2.002179,0.21351 4.004359,0.28467 h 6.212949 v -1.53011 q -0.06192,-1.83258 -0.288974,-3.78971 l 4.355257,0.51597 q 0.619231,0.2313 0.619231,0.58714 0,0.35585 -0.536666,0.83623 -0.206411,0.16013 -0.206411,1.99271 v 1.38777 h 4.045642 q 2.105384,-0.0712 4.025001,-0.28467 v 1.28103 q 1.81641,-2.34855 3.199359,-4.71489 l 3.508974,1.83258 h -0.04129 q 1.01141,0.53376 0.928846,0.94298 -0.06192,0.39142 -1.217821,0.6583 -0.722435,0.14234 -1.362307,0.94298 -0.103207,0.14234 -0.330257,0.39143 -2.62141,3.32712 -5.118975,5.80021 h 8.070642 q 1.795774,-0.0534 4.066286,-0.32026 v 3.41608 q -0.49539,-0.0356 -1.589362,-0.12455 -2.146667,-0.16012 -2.415001,-0.16012 H 86.221993 q -3.736026,3.29153 -7.678463,6.22721 v 1.45895 q 9.43295,-2.20621 13.953335,-4.98178 l 2.621411,2.82894 q 0.516025,0.60493 0.516025,0.96078 0,0.14233 -0.103207,0.26687 -0.227051,0.2313 -0.805,0.2313 -0.392179,0 -0.805,-0.0712 h 0.04129 q -0.165127,-0.0356 -0.454102,-0.0356 -0.846282,0 -2.167308,0.4448 -8.008719,2.31297 -12.797438,3.20257 v 2.73998 q -0.165128,1.01415 2.146667,1.01415 0.805,0.0178 1.960898,0.0356 0.536666,0 1.238462,0 0.59859,0 1.754487,0 1.465513,0 2.20859,0 0.866923,-0.0178 1.548078,-0.0356 3.756666,-0.0712 3.63282,-2.50868 0,-0.12455 -0.08257,-0.94299 -0.08257,-1.01414 -0.123847,-1.58348 2.580129,1.97491 4.685514,2.29517 -0.99077,3.32712 -2.353077,4.41243 -1.279744,1.15648 -4.437821,1.24545 -4.334617,0.14233 -7.41013,0.14233 -2.084743,0 -4.045641,-0.0712 -4.871283,-0.10675 -4.62359,-3.20257 v -5.21306 q -3.591539,2.17062 -9.763207,5.39099 -0.970128,-1.76142 -3.632821,-3.06024 6.976668,-2.02829 13.354746,-6.31618 -0.123846,-1.24544 -0.371539,-2.61543 l 3.632821,0.35584 q 1.424231,-0.99636 3.261282,-2.61543 H 66.365327 q -1.548077,0.0356 -4.107565,0.28468 v -3.41608 q 2.332437,0.24908 4.107565,0.32026 z m 17.586156,0 q 2.084744,-1.99271 3.591539,-3.86088 -1.651283,-0.16012 -2.415,-0.17792 H 81.08238 v 4.0388 z m 26.028327,14.94532 h 11.29065 v -9.69666 h -7.43077 q -1.7132,0.0356 -4.74743,0.40921 v -3.68296 q 2.84845,0.37364 4.74743,0.39143 h 7.43077 v -8.59356 h -9.96962 q -1.54808,0.0534 -4.72679,0.37363 v -3.68295 q 2.47692,0.32025 4.72679,0.42701 h 23.42757 q 2.62141,-0.10676 4.89193,-0.42701 v 3.71854 q -2.18795,-0.28467 -4.89193,-0.40922 h -9.47423 v 8.59356 h 6.8941 q 2.27051,-0.0712 4.80936,-0.39143 v 3.68296 q -3.09616,-0.39143 -4.80936,-0.40921 h -6.8941 v 9.69666 h 12.03372 q 2.35307,-0.0534 5.16025,-0.44479 v 3.68295 q -2.99294,-0.37364 -5.16025,-0.42701 h -27.2668 q -1.69257,0 -5.01577,0.42701 v -3.68295 q 2.80718,0.37363 4.97448,0.44479 z"
       id="text6"
       style="font-weight:bold;font-size:39.2472px;font-family:DengXian;-inkscape-font-specification:'DengXian, Bold';fill:#ffff00;stroke:#ff2100;stroke-width:0.59"
       aria-label="老王" />
  </g>
</svg>
