<?xml version="1.0" encoding="UTF-8" standalone="no"?>
<!-- Created with Inkscape (http://www.inkscape.org/) -->

<svg
   width="200mm"
   height="120mm"
   viewBox="0 0 200 120"
   version="1.1"
   id="svg1"
   inkscape:version="1.3.1 (91b66b0, 2023-11-16)"
   sodipodi:docname="panpangis_log2.svg"
   inkscape:export-filename="PanpanGIS/figure/panpangis_logo2.png"
   inkscape:export-xdpi="96"
   inkscape:export-ydpi="96"
   xmlns:inkscape="http://www.inkscape.org/namespaces/inkscape"
   xmlns:sodipodi="http://sodipodi.sourceforge.net/DTD/sodipodi-0.dtd"
   xmlns="http://www.w3.org/2000/svg"
   xmlns:svg="http://www.w3.org/2000/svg">
  <sodipodi:namedview
     id="namedview1"
     pagecolor="#ffffff"
     bordercolor="#000000"
     borderopacity="0.25"
     inkscape:showpageshadow="2"
     inkscape:pageopacity="0.0"
     inkscape:pagecheckerboard="0"
     inkscape:deskcolor="#d1d1d1"
     inkscape:document-units="mm"
     inkscape:zoom="0.79993102"
     inkscape:cx="344.4047"
     inkscape:cy="432.53729"
     inkscape:window-width="2560"
     inkscape:window-height="1387"
     inkscape:window-x="1440"
     inkscape:window-y="25"
     inkscape:window-maximized="0"
     inkscape:current-layer="layer1" />
  <defs
     id="defs1" />
  <g
     inkscape:label="图层 1"
     inkscape:groupmode="layer"
     id="layer1">
    <path
       d="m 76.898006,4.875986 q 1.11921,0 1.438985,0.5596052 0.399718,0.4796617 0.399718,1.5988721 -4.077124,4.0771237 -5.915827,10.1528377 -1.838703,5.99577 -1.918647,13.990131 0,0.23983 -0.399718,0.479661 -0.399718,0.239831 -0.879379,0.399718 -0.399718,0.07994 -0.799436,0.07994 -0.399718,-0.07994 -0.399718,-0.479662 0,-0.319774 0,-0.799436 0.07994,-0.479661 0.07994,-1.039267 0,-1.918646 -1.279097,-4.396898 -1.279098,-2.478252 -3.517519,-4.716672 -2.238421,-2.318365 -5.276278,-3.837293 -2.957913,-1.598873 -6.395488,-1.598873 -4.716673,0 -8.394078,2.158478 -3.597463,2.078533 -6.075714,5.596052 -2.478252,3.517519 -3.837293,8.234191 -1.279098,4.636729 -1.279098,9.75312 0,5.755939 1.518929,10.87233 1.598872,5.036447 4.396898,8.87374 2.798026,3.757349 6.715263,5.99577 3.99718,2.238421 8.713852,2.238421 3.197744,0 5.75594,-1.039267 2.558195,-1.11921 4.316954,-2.957913 1.75876,-1.918647 2.718083,-4.476842 0.959323,-2.558195 0.959323,-5.516109 0,-2.398308 -0.719492,-4.796616 -0.719493,-2.478251 -1.99859,-4.396898 -1.279098,-1.99859 -2.957914,-3.197744 -1.678815,-1.279098 -3.677406,-1.279098 -1.199154,0 -2.398308,0.319775 -1.199154,0.23983 -2.158477,0.879379 -0.959323,0.559606 -1.518928,1.438985 -0.559606,0.87938 -0.559606,2.158477 0,0.959324 0.319775,1.838703 0.319774,0.799436 0.799436,1.438985 0.479661,0.559605 0.959323,0.959323 0.479662,0.319775 0.799436,0.239831 0.399718,-0.07994 0.559605,0.399718 0.239831,0.399718 0.07994,0.559605 -0.399718,0.479662 -2.718083,1.199155 -2.318364,0.639548 -5.516108,0.639548 -2.87797,0 -4.556786,-1.838703 -1.598872,-1.838702 -1.598872,-4.237011 0,-1.518928 1.518929,-3.037856 1.518928,-1.598873 4.157067,-2.798027 2.638139,-1.279097 6.155658,-2.078533 3.517518,-0.799436 7.514698,-0.799436 4.316955,0 7.674586,0.959323 3.357632,0.959323 5.675996,2.638139 2.318365,1.678816 3.517519,3.917236 1.199154,2.238421 1.199154,4.716673 0,3.837293 -2.238421,7.674586 -2.238421,3.757349 -5.915827,6.795206 -3.677406,2.957914 -8.474022,4.87656 -4.716672,1.838703 -9.753119,1.838703 -7.674586,0 -13.590413,-2.078534 -5.835883,-2.078533 -9.75312,-5.835883 -3.917236,-3.757349 -5.915826,-8.87374 -1.99859,-5.11639 -1.99859,-11.272048 0,-6.635319 2.718082,-12.471202 2.718083,-5.835883 7.434755,-10.232781 4.716673,-4.396898 11.112161,-6.87515 6.395488,-2.558195 13.830244,-2.558195 5.755939,0 9.513288,1.11921 3.75735,1.11921 6.075714,1.838703 0.319775,-0.799436 0.87938,-2.238421 0.639549,-1.518929 1.359041,-3.037857 0.799436,-1.5189284 1.678816,-2.7980261 0.879379,-1.3590413 1.838703,-1.8387029 z m 15.269295,65.553755 q -1.438984,0 -3.197744,0 -1.758759,0.07994 -3.437575,0.07994 -1.678815,0.07994 -3.197744,0.159887 -1.438985,0.159887 -2.238421,0.239831 L 78.81672,71.06929 q -0.399718,0 -0.639549,-0.479662 -0.319775,-0.399718 -0.319775,-0.799436 0,-0.319774 0.319775,-0.639549 0.319774,-0.399718 0.879379,-0.399718 3.357632,0 5.356222,-0.399718 1.99859,-0.399718 2.398308,-1.039267 0.479662,-0.959323 0.959323,-4.237011 0.559605,-3.357631 0.959323,-7.754529 0.399718,-4.476842 0.639549,-9.353402 0.239831,-4.87656 0.239831,-9.033627 0,-4.556785 -0.07994,-7.594642 0,-3.117801 -0.07994,-5.116391 0,-1.99859 -0.07994,-3.037857 0,-1.11921 0,-1.598872 -0.07994,-2.558195 -0.719492,-3.357631 -0.639549,-0.87938 -2.318365,-1.039267 -1.199154,-0.159887 -2.798026,-0.07994 -1.598872,0.07994 -2.318364,0 -0.559605,-0.07994 -0.959324,-0.159887 -0.399718,-0.159887 -0.399718,-0.87938 0,-0.799436 0.399718,-1.039266 0.399719,-0.319775 0.87938,-0.319775 0.639549,0 4.077124,0.319775 3.517518,0.23983 9.99295,0.23983 4.237011,0 7.194922,-0.159887 3.03786,-0.239831 4.15707,-0.399718 0.55961,0 1.03927,0.159887 0.5596,0.07994 0.5596,0.719493 0,1.359041 -1.8387,1.518928 -0.63955,0 -1.43899,0.07994 -0.79943,0.07994 -1.59887,0.159887 -0.71949,0.07994 -1.35904,0.239831 -0.63955,0.159887 -0.95932,0.239831 -0.39972,0.159887 -0.79944,2.957913 -0.319773,2.718083 -0.639547,6.795206 -0.239831,4.077124 -0.479662,8.793797 -0.23983,4.716672 -0.319774,8.713853 -0.07994,3.037856 -0.159887,7.11498 0,3.99718 0.07994,7.75453 0.159888,3.677406 0.399718,6.395488 0.239831,2.718083 0.719493,3.117801 0.319776,0.23983 1.199156,0.479661 0.87938,0.159887 2.07853,0.399718 1.19916,0.159887 2.39831,0.239831 1.2791,0.07994 2.31836,0.07994 0.87938,0 1.11921,0.159887 0.23984,0.159887 0.23984,0.799436 0,0.719492 -0.63955,1.039267 -0.55961,0.319774 -1.19916,0.319774 -0.47966,0 -1.43898,-0.07994 -0.95933,-0.07994 -2.63814,-0.239831 -1.67882,-0.07994 -4.237012,-0.159887 -2.558196,-0.07994 -6.315545,-0.07994 z M 110.71428,50.603727 q -0.15989,0 -0.31978,0 -0.15988,-0.07994 -0.23983,-0.319774 0,-0.07994 0.15989,-0.559605 0.23983,-0.479662 0.71949,-1.039267 0.47967,-0.559605 1.19916,-0.959323 0.71949,-0.479662 1.75876,-0.479662 1.27909,0 2.07853,0.719492 0.79944,0.639549 1.2791,1.838703 0.47966,1.199154 0.63955,2.798026 0.15988,1.518929 0.15988,3.277688 0.23984,1.918647 1.75876,3.917237 1.59888,1.99859 3.8373,3.597462 2.31836,1.598872 5.03644,2.638139 2.71809,1.039267 5.27628,1.11921 6.07572,0.159887 8.87374,-2.558195 2.79803,-2.798026 2.79803,-7.114981 0,-3.597462 -1.35904,-5.835883 -1.35904,-2.238421 -3.67741,-3.597462 -2.23842,-1.359041 -5.11639,-2.158477 -2.87797,-0.87938 -5.91583,-1.598872 -2.95791,-0.719493 -5.83588,-1.598873 -2.87797,-0.879379 -5.19633,-2.398308 -2.23842,-1.518928 -3.59747,-3.917236 -1.35904,-2.478252 -1.35904,-6.315545 0,-3.677406 1.59887,-6.955093 1.67882,-3.357632 4.71668,-5.835883 3.03785,-2.558196 7.35481,-3.997181 4.3969,-1.518928 9.91301,-1.518928 5.27627,0 9.03362,1.039267 3.75735,1.039267 5.75594,1.598872 0.39972,-0.639549 0.87938,-1.438985 0.47966,-0.87938 1.03927,-1.598872 0.63955,-0.719493 1.35904,-1.199154 0.71949,-0.5596054 1.67882,-0.5596054 0.71949,0 1.11921,0.4796614 0.47966,0.399718 0.47966,0.799436 -0.15989,0.399718 -0.63955,0.639549 -0.47966,0.239831 -0.87938,0.479662 -2.47825,1.279097 -4.15707,5.99577 -1.59887,4.636729 -1.8387,11.431935 -0.0799,0.159888 -0.39972,0.239831 -0.31977,0.07994 -0.71949,0.07994 -0.63955,0 -0.87938,-0.07994 -0.23983,-2.398308 -1.43899,-4.87656 -1.19915,-2.478251 -3.35763,-4.476841 -2.07853,-2.078534 -5.19633,-3.357632 -3.03786,-1.279098 -6.95509,-1.279098 -2.39831,0 -4.31696,0.719493 -1.91865,0.639549 -3.27769,1.838703 -1.27909,1.11921 -1.99859,2.558195 -0.63955,1.438985 -0.63955,2.87797 0,3.357631 2.71809,6.155657 2.71808,2.718083 8.23419,4.077124 3.43757,0.87938 7.11498,1.99859 3.75735,1.039267 6.7952,2.87797 3.03786,1.838703 5.03645,4.636729 1.99859,2.798026 1.99859,7.114981 0,4.237011 -1.99859,8.154247 -1.91864,3.837293 -5.11639,6.795206 -3.19774,2.957914 -7.27487,4.716673 -4.07712,1.758759 -8.31413,1.758759 -3.27769,0 -6.39549,-0.479661 -3.1178,-0.399718 -5.75594,-1.039267 -2.63814,-0.559605 -4.63673,-1.199154 -1.99859,-0.719493 -2.95791,-1.199154 0.71949,-1.279098 1.43898,-2.718083 0.79944,-1.438985 1.43899,-3.037857 0.71949,-1.598872 1.11921,-3.277687 0.47966,-1.75876 0.47966,-3.677406 0,-2.798026 -0.87938,-4.237011 -0.79944,-1.438985 -1.91865,-1.438985 -0.79943,0 -1.11921,0.319774 -0.31977,0.319775 -0.79943,0.959324 z"
       id="text1"
       style="font-size:79.9436px;font-family:Luminari;-inkscape-font-specification:'Luminari, Normal';fill:#d88620;stroke:#000000"
       transform="scale(1.1267798,0.88748484)"
       aria-label="GIS" />
    <path
       d="m 27.501987,88.83667 h 0.910575 l 1.0792,0.6745 1.450175,1.787425 0.2698,0.33725 2.664275,1.01175 1.0792,0.775675 h 0.303525 l 2.327025,1.6188 0.1349,0.4047 h 0.236075 l 1.517625,1.382725 0.5396,0.8094 0.370975,0.20235 v 0.303525 l 0.60705,0.60705 v 0.303525 h 0.20235 l 0.978025,1.854875 v 0.4047 l -0.20235,0.10118 0.60705,0.77567 0.20235,1.14665 0.236075,0.70823 v 0.60705 0.57332 l 0.236075,0.87685 v 0.57333 l -0.303525,0.0674 0.168625,0.47215 -0.03372,0.84312 -0.33725,0.30353 0.1349,0.33725 -0.03372,1.14665 -0.303525,0.5396 -0.438425,1.51762 -1.045475,1.98978 -1.585075,1.85487 -1.247825,1.4839 -2.731725,1.65253 -0.978025,2.46192 -0.20235,0.0674 v 0.43843 l -0.6745,0.84312 -0.4047,1.0792 -0.168625,0.16863 -0.20235,-0.16863 -0.2698,0.0337 -0.33725,-0.4047 0.505875,-1.01175 0.1349,-0.33725 0.6745,-1.65253 0.236075,-0.84312 -0.573325,0.20235 -2.22585,0.6745 -0.573325,-0.20235 -1.247825,0.16862 -0.9443,-0.1349 -1.045475,-0.33725 -0.843125,-0.60705 -0.708225,-0.8094 -0.370975,-1.11292 -0.101175,-1.38273 v -0.84312 l 0.978025,-1.0792 0.20235,-0.0674 0.33725,-0.5396 0.910575,-0.1349 1.01175,-0.0674 0.843125,0.50587 0.47215,1.04548 -0.1349,0.77567 -0.33725,0.57333 -0.8094,0.37097 -1.349,-0.23607 -0.60705,0.2698 v 0.4047 l 0.6745,0.87685 0.8094,0.37097 1.2141,-0.0337 1.82115,-0.5396 2.1584,-1.01175 1.652525,-1.31528 0.03373,-0.70822 v -1.65253 l -0.06745,-2.22585 -0.236075,-1.98977 -0.303525,-2.76545 v -0.43843 l -0.370975,-2.1584 -0.438425,-2.2933 -0.168625,-0.23607 -1.382725,-4.654055 -0.708225,-1.315275 -1.01175,-2.0235 -0.1349,-0.101175 -1.7537,-0.505875 -0.4047,-0.03372 -2.76545,0.03372 -4.24935,0.438425 -0.5396,0.1349 -2.698,0.74195 -1.045475,0.370975 -1.0792,0.2698 -1.450175,0.573325 -1.4839,0.74195 -2.495651,1.4839 -1.2815496,1.180375 -1.045475,0.843125 -1.9897751,2.057225 -1.382725,2.09095 -0.775675,0.97803 -0.47215,1.98977 -0.236075,1.68625 -0.033725,0.91058 0.06745,0.33725 0.236075,0.87685 0.303525,1.14665 0.843125,1.04547 0.33725,0.0337 0.2698,0.47215 0.640775,0.0337 1.7874251,0.0337 1.55135,-0.6745 1.0791996,-0.97803 0.87685,-1.51762 0.2698,-1.58508 -0.2698,-1.04547 -0.303525,-0.0675 -0.1349,-0.33725 -0.573325,-0.1349 0.573325,-0.47215 0.775675,0.1349 1.753701,0.74195 0.978025,0.87685 v 0.33725 l 0.370975,0.30352 -0.101175,0.37098 0.1349,0.1349 0.168625,1.28155 -0.06745,0.1349 -0.438425,0.20235 0.236075,0.2698 -0.168625,0.91057 -0.843125,1.14665 -1.382726,1.2141 h -0.33725 l -0.843125,0.6745 -1.4164496,0.33725 -0.168625,0.1349 -1.180375,0.0337 -1.9223251,-0.16863 -1.652525,-0.8094 -1.28155,-1.11292 -0.101175,-0.30353 -0.236075,-0.10117 -1.0454751,-2.1584 -0.370975,-1.78743 0.033725,-1.78742 0.1349,-0.84313 0.910575,-2.46192 2.0909501,-3.3725 1.2141,-1.45018 2.1921251,-1.989775 3.3387746,-2.1584 3.642301,-1.4839 0.47215,-0.168625 1.4839,-0.573325 5.632075,-1.14665 2.731725,-0.303525 0.20235,-0.101175 2.90035,0.168625 0.775675,0.06745 -1.045475,-1.315275 -1.045475,-0.9443 z m -10.5222,8.70105 0.775675,-0.03372 1.95605,0.438425 0.775675,0.303525 1.01175,0.8094 0.5396,0.1349 0.775675,1.079205 0.1349,0.16862 0.4047,0.9443 -0.1349,0.30353 0.2698,0.20235 0.370975,0.70822 0.1349,1.0792 -0.1349,0.16863 -0.33725,1.6188 0.438425,2.46192 -0.1349,0.1349 -0.168625,0.6745 -0.101175,1.11293 0.20235,1.6188 -0.60705,2.36075 0.20235,0.33725 -0.06745,0.43842 0.1349,0.70823 -0.168625,1.14665 0.236075,1.95605 v 0.64077 l -0.303525,0.91058 0.303525,0.1349 -0.33725,0.84312 v 1.28155 l -0.2698,2.12468 v 2.09095 l -0.168625,1.28155 -0.505875,1.78742 0.1349,0.64078 -0.4047,0.43842 -0.2698,1.41645 -0.236075,1.18038 -0.9443,1.68625 2.4282,-0.43843 1.6188,-0.23607 1.2141,-0.0675 0.708225,0.16862 1.517625,0.30353 0.370975,0.2698 0.370975,0.60705 -1.6188,1.349 -1.045475,0.57332 -0.33725,-0.23607 1.0792,-1.24783 -0.843125,-0.20235 -1.68625,0.0675 -0.910575,0.1349 -1.55135,0.5396 h -0.4047 l -0.33725,0.30353 -0.33725,-0.0674 -0.505875,0.47215 h -0.20235 l -0.775675,0.50587 -1.112925,0.60705 -0.8094,0.33725 -1.450175,0.9443 -0.505875,0.37098 -0.47215,0.8094 0.303525,0.6745 0.6745,0.57332 0.06745,0.30353 -0.4047,0.1349 -2.698,-1.65253 -0.843126,-1.38272 0.337251,-0.57333 1.247825,-0.87685 2.866625,-1.38272 1.719975,-0.74195 1.045475,-0.5396 -0.03373,-0.97803 -0.101175,-2.63055 0.101175,-0.16862 -0.1349,-0.6745 -0.1349,-4.41798 -0.303525,-4.9913 0.03373,-0.91057 -0.1349,-1.14665 -0.236075,-5.9356 -0.1349,-2.39448 -0.20235,-1.31527 0.06745,-0.43843 -0.370975,-5.76697 -0.438425,-5.29483 z m 15.142525,-4.215625 1.6188,4.013275 1.585075,4.65405 0.33725,1.8886 0.236075,1.82115 0.370975,4.3168 -0.101175,0.16863 0.168625,0.30352 -0.03372,3.17015 0.06745,0.30353 0.4047,-0.23608 0.9443,-1.51762 0.978025,-1.51763 0.20235,-0.43842 v -0.2698 l 0.640775,-1.28155 0.236075,-1.11293 -0.03372,-0.50587 0.236075,-0.2698 0.06745,-0.6745 0.101175,-2.19213 v -1.11292 l -1.349,-3.54113 -0.303525,-0.775675 -0.573325,-0.775675 -0.8094,-1.247825 -1.247825,-1.01175 -1.585075,-1.28155 -1.349,-0.640775 z M 51.615363,116.9296 h 1.01175 l 1.585075,0.4047 1.517625,1.04547 1.247825,1.11293 0.843125,1.4839 0.47215,2.0235 -0.236075,1.95605 -0.505875,1.85487 -0.20235,0.20235 -0.03372,0.50588 -0.573325,0.60705 -0.20235,0.87685 -0.303525,0.33725 -0.236075,0.60705 -0.1349,0.20235 1.045475,1.55135 1.4839,0.30352 0.505875,-0.10117 0.4047,-0.33725 h 0.1349 v 0.8094 l -0.06745,0.43842 -0.33725,0.37098 -0.978025,0.57332 -0.5396,0.10118 -0.8094,-0.30353 -0.978025,-1.55135 v -0.1349 l -0.5396,-1.04547 -0.168625,0.43842 -0.20235,0.0675 -1.854875,1.38273 -1.045475,0.4047 -0.708225,0.50587 -1.55135,0.60705 -0.843125,0.10118 -0.101175,0.16862 -1.922325,0.16863 -0.6745,-0.23608 -0.9443,-0.8094 -0.438425,-0.70822 0.06745,-0.20235 -0.2698,-0.91058 0.06745,-0.97802 0.1349,-0.1349 -0.1349,-0.33725 0.505875,-1.55135 0.9443,-1.11293 0.2698,-0.50587 0.4047,-0.0675 0.303525,-0.4047 0.303525,0.0337 0.2698,-0.37097 0.6745,-0.16863 h 0.33725 l 0.1349,-0.2698 1.652525,-0.16862 1.112925,0.23607 0.6745,0.0337 0.303525,0.30352 0.438425,0.16863 0.168625,0.33725 0.33725,0.0337 0.6745,0.87685 0.236075,0.1349 0.47215,-0.8094 0.60705,-1.38272 0.303525,-0.20235 0.6745,-2.12468 -0.168625,-0.37097 0.33725,-0.5396 -0.2698,-0.57333 0.168625,-0.5396 -0.20235,-0.77567 -0.236075,-0.33725 0.06745,-0.23608 -0.8094,-0.70822 -0.101175,-0.23608 -1.2141,-0.30352 -1.14665,0.0675 -0.843125,0.23607 -1.14665,0.30353 -1.787425,1.04547 -1.382725,1.4839 -0.33725,0.4047 -0.236075,0.57333 0.06745,0.43842 0.2698,0.6745 0.5396,0.33725 -0.101175,0.2698 h -0.20235 l -1.01175,-0.5396 -0.1349,-0.30352 -0.6745,-0.64078 -0.303525,-0.64077 -0.5396,-0.5396 -0.47215,-0.77568 0.06745,-0.50587 0.74195,-0.8094 0.775675,-0.70823 0.640775,-0.16862 0.236075,-0.57333 0.303525,0.0675 0.4047,-0.4047 2.698,-0.9443 z m 0.101175,10.31985 -0.775675,0.0337 -1.68625,0.5396 -0.47215,0.1349 -1.6188,1.45018 -0.4047,0.37097 -0.640775,1.31528 -0.2698,0.30352 -0.101175,1.14665 0.1349,0.23608 -0.03372,0.23607 0.236075,0.37098 0.74195,0.23607 1.01175,-0.10117 1.01175,-0.33725 0.1349,-0.20235 0.5396,-0.1349 2.731725,-2.25958 0.978025,-1.14665 0.505875,-0.74195 -0.910575,-1.14665 -0.4047,0.0674 z m 12.073548,-7.89165 1.854875,0.30352 0.74195,0.33725 1.315275,1.0792 0.06745,1.14665 -0.1349,1.92233 0.1349,0.6745 0.6745,-1.31528 1.8886,-2.0235 0.87685,-0.8094 1.68625,-1.31527 0.5396,-0.10118 1.450175,0.33725 0.74195,0.50588 0.74195,1.0792 -0.03373,0.60705 0.168625,0.30352 0.03372,0.8094 -0.2698,0.2698 0.03372,0.2698 -0.74195,1.55135 0.03372,0.47215 -0.4047,0.43843 0.03372,0.20235 -0.1349,1.04547 -0.168625,0.23608 h -0.20235 l 0.06745,0.37097 -0.20235,0.16863 -0.168625,0.91057 0.06745,0.20235 -0.168625,1.14665 0.101175,0.5396 -0.20235,0.43843 0.168625,0.33725 0.505875,0.1349 1.6188,-1.28155 0.303525,-0.0337 0.06745,-0.33725 0.978025,-0.70822 0.775675,-0.91058 0.168625,0.10118 -0.101175,0.6745 -0.9443,1.6188 -0.775675,0.70822 -0.03373,0.33725 -1.247825,0.8094 h -0.236075 l -0.20235,0.4047 -0.843125,0.30353 -0.573325,-0.2698 -0.101175,-0.20235 -0.87685,-0.16863 -0.9443,-1.55135 -0.4047,-2.0235 -0.101175,-0.6745 0.101175,-0.33725 0.2698,-1.58507 1.01175,-3.3725 0.47215,-0.77568 0.2698,-1.24782 -0.236075,-0.50588 -0.2698,-0.1349 -1.517625,0.9443 -1.719975,2.19213 -1.28155,2.22585 -0.87685,2.19212 0.03372,0.20235 -1.82115,4.28308 -0.33725,0.57332 -0.640775,1.95605 -0.2698,-0.33725 -0.20235,0.1349 -0.505875,-0.23607 v -0.30353 l -0.236075,-0.0674 0.03372,0.16863 -0.438425,-0.0337 -0.573325,-0.64077 0.03373,-0.50588 0.4047,-1.95605 0.438425,-1.41645 -0.101175,-0.70822 0.2698,-0.37098 -0.06745,-0.50587 0.843125,-3.70975 0.168625,-2.2933 -0.101175,-1.71998 z M 108.03729,88.83667 h 0.91057 l 1.0792,0.6745 1.45018,1.787425 0.2698,0.33725 2.66427,1.01175 1.0792,0.775675 h 0.30353 l 2.32702,1.6188 0.1349,0.4047 h 0.23608 l 1.51762,1.382725 0.5396,0.8094 0.37098,0.20235 v 0.303525 l 0.60705,0.60705 v 0.303525 h 0.20235 l 0.97802,1.854875 v 0.4047 l -0.20235,0.10118 0.60705,0.77567 0.20235,1.14665 0.23608,0.70823 v 0.60705 0.57332 l 0.23607,0.87685 v 0.57333 l -0.30352,0.0674 0.16862,0.47215 -0.0337,0.84312 -0.33725,0.30353 0.1349,0.33725 -0.0337,1.14665 -0.30352,0.5396 -0.43843,1.51762 -1.04547,1.98978 -1.58508,1.85487 -1.24782,1.4839 -2.73173,1.65253 -0.97802,2.46192 -0.20235,0.0674 v 0.43843 l -0.6745,0.84312 -0.4047,1.0792 -0.16863,0.16863 -0.20235,-0.16863 -0.2698,0.0337 -0.33725,-0.4047 0.50588,-1.01175 0.1349,-0.33725 0.6745,-1.65253 0.23607,-0.84312 -0.57332,0.20235 -2.22585,0.6745 -0.57333,-0.20235 -1.24782,0.16862 -0.9443,-0.1349 -1.04548,-0.33725 -0.84312,-0.60705 -0.70823,-0.8094 -0.37097,-1.11292 -0.10118,-1.38273 v -0.84312 l 0.97803,-1.0792 0.20235,-0.0674 0.33725,-0.5396 0.91057,-0.1349 1.01175,-0.0674 0.84313,0.50587 0.47215,1.04548 -0.1349,0.77567 -0.33725,0.57333 -0.8094,0.37097 -1.349,-0.23607 -0.60705,0.2698 v 0.4047 l 0.6745,0.87685 0.8094,0.37097 1.2141,-0.0337 1.82115,-0.5396 2.1584,-1.01175 1.65252,-1.31528 0.0337,-0.70822 v -1.65253 l -0.0674,-2.22585 -0.23608,-1.98977 -0.30352,-2.76545 v -0.43843 l -0.37098,-2.1584 -0.43842,-2.2933 -0.16863,-0.23607 -1.38272,-4.654055 -0.70823,-1.315275 -1.01175,-2.0235 -0.1349,-0.101175 -1.7537,-0.505875 -0.4047,-0.03372 -2.76545,0.03372 -4.24935,0.438425 -0.5396,0.1349 -2.697997,0.74195 -1.045475,0.370975 -1.0792,0.2698 -1.450175,0.573325 -1.4839,0.74195 -2.49565,1.4839 -1.28155,1.180375 -1.045475,0.843125 -1.989775,2.057225 -1.382725,2.09095 -0.775676,0.97803 -0.47215,1.98977 -0.236075,1.68625 -0.03372,0.91058 0.06745,0.33725 0.236075,0.87685 0.303525,1.14665 0.843126,1.04547 0.33725,0.0337 0.2698,0.47215 0.640775,0.0337 1.787425,0.0337 1.55135,-0.6745 1.0792,-0.97803 0.87685,-1.51762 0.2698,-1.58508 -0.2698,-1.04547 -0.303525,-0.0675 -0.1349,-0.33725 -0.573325,-0.1349 0.573325,-0.47215 0.775675,0.1349 1.7537,0.74195 0.978025,0.87685 v 0.33725 l 0.370975,0.30352 -0.101175,0.37098 0.1349,0.1349 0.168625,1.28155 -0.06745,0.1349 -0.438425,0.20235 0.236075,0.2698 -0.168625,0.91057 -0.843125,1.14665 -1.382725,1.2141 h -0.33725 l -0.843125,0.6745 -1.41645,0.33725 -0.168625,0.1349 -1.180375,0.0337 -1.922325,-0.16863 -1.652525,-0.8094 -1.281551,-1.11292 -0.101175,-0.30353 -0.236075,-0.10117 -1.045475,-2.1584 -0.370975,-1.78743 0.03373,-1.78742 0.1349,-0.84313 0.910575,-2.46192 2.090951,-3.3725 1.2141,-1.45018 2.192125,-1.989775 3.338775,-2.1584 3.6423,-1.4839 0.47215,-0.168625 1.4839,-0.573325 5.632072,-1.14665 2.73173,-0.303525 0.20235,-0.101175 2.90035,0.168625 0.77567,0.06745 -1.04547,-1.315275 -1.04548,-0.9443 z m -10.522202,8.70105 0.775675,-0.03372 1.956047,0.438425 0.77568,0.303525 1.01175,0.8094 0.5396,0.1349 0.77567,1.079205 0.1349,0.16862 0.4047,0.9443 -0.1349,0.30353 0.2698,0.20235 0.37098,0.70822 0.1349,1.0792 -0.1349,0.16863 -0.33725,1.6188 0.43842,2.46192 -0.1349,0.1349 -0.16862,0.6745 -0.10118,1.11293 0.20235,1.6188 -0.60705,2.36075 0.20235,0.33725 -0.0675,0.43842 0.1349,0.70823 -0.16862,1.14665 0.23607,1.95605 v 0.64077 l -0.30352,0.91058 0.30352,0.1349 -0.33725,0.84312 v 1.28155 l -0.2698,2.12468 v 2.09095 l -0.16862,1.28155 -0.50588,1.78742 0.1349,0.64078 -0.4047,0.43842 -0.2698,1.41645 -0.23607,1.18038 -0.9443,1.68625 2.4282,-0.43843 1.6188,-0.23607 1.2141,-0.0675 0.70822,0.16862 1.51763,0.30353 0.37097,0.2698 0.37098,0.60705 -1.6188,1.349 -1.04548,0.57332 -0.33725,-0.23607 1.0792,-1.24783 -0.84312,-0.20235 -1.68625,0.0675 -0.91058,0.1349 -1.55135,0.5396 h -0.4047 l -0.33725,0.30353 -0.33725,-0.0674 -0.50587,0.47215 h -0.20235 l -0.775677,0.50587 -1.112925,0.60705 -0.8094,0.33725 -1.450175,0.9443 -0.505875,0.37098 -0.47215,0.8094 0.303525,0.6745 0.6745,0.57332 0.06745,0.30353 -0.4047,0.1349 -2.698,-1.65253 -0.843125,-1.38272 0.33725,-0.57333 1.247825,-0.87685 2.866625,-1.38272 1.719975,-0.74195 1.045475,-0.5396 -0.03373,-0.97803 -0.101175,-2.63055 0.101175,-0.16862 -0.1349,-0.6745 -0.1349,-4.41798 -0.303525,-4.9913 0.03373,-0.91057 -0.1349,-1.14665 -0.236075,-5.9356 -0.1349,-2.39448 -0.20235,-1.31527 0.06745,-0.43843 -0.370975,-5.76697 -0.438425,-5.29483 z m 15.142522,-4.215625 1.6188,4.013275 1.58508,4.65405 0.33725,1.8886 0.23607,1.82115 0.37098,4.3168 -0.10118,0.16863 0.16863,0.30352 -0.0337,3.17015 0.0674,0.30353 0.4047,-0.23608 0.9443,-1.51762 0.97803,-1.51763 0.20235,-0.43842 v -0.2698 l 0.64077,-1.28155 0.23608,-1.11293 -0.0337,-0.50587 0.23608,-0.2698 0.0674,-0.6745 0.10117,-2.19213 v -1.11292 l -1.349,-3.54113 -0.30352,-0.775675 -0.57333,-0.775675 -0.8094,-1.247825 -1.24782,-1.01175 -1.58508,-1.28155 -1.349,-0.640775 z m 19.49305,23.607505 h 1.01175 l 1.58508,0.4047 1.51762,1.04547 1.24783,1.11293 0.84312,1.4839 0.47215,2.0235 -0.23607,1.95605 -0.50588,1.85487 -0.20235,0.20235 -0.0337,0.50588 -0.57333,0.60705 -0.20235,0.87685 -0.30352,0.33725 -0.23608,0.60705 -0.1349,0.20235 1.04548,1.55135 1.4839,0.30352 0.50587,-0.10117 0.4047,-0.33725 h 0.1349 v 0.8094 l -0.0675,0.43842 -0.33725,0.37098 -0.97802,0.57332 -0.5396,0.10118 -0.8094,-0.30353 -0.97803,-1.55135 v -0.1349 l -0.5396,-1.04547 -0.16862,0.43842 -0.20235,0.0675 -1.85488,1.38273 -1.04547,0.4047 -0.70823,0.50587 -1.55135,0.60705 -0.84312,0.10118 -0.10118,0.16862 -1.92232,0.16863 -0.6745,-0.23608 -0.9443,-0.8094 -0.43843,-0.70822 0.0675,-0.20235 -0.2698,-0.91058 0.0674,-0.97802 0.1349,-0.1349 -0.1349,-0.33725 0.50588,-1.55135 0.9443,-1.11293 0.2698,-0.50587 0.4047,-0.0675 0.30352,-0.4047 0.30353,0.0337 0.2698,-0.37097 0.6745,-0.16863 h 0.33725 l 0.1349,-0.2698 1.65252,-0.16862 1.11293,0.23607 0.6745,0.0337 0.30352,0.30352 0.43843,0.16863 0.16862,0.33725 0.33725,0.0337 0.6745,0.87685 0.23608,0.1349 0.47215,-0.8094 0.60705,-1.38272 0.30352,-0.20235 0.6745,-2.12468 -0.16862,-0.37097 0.33725,-0.5396 -0.2698,-0.57333 0.16862,-0.5396 -0.20235,-0.77567 -0.23607,-0.33725 0.0675,-0.23608 -0.8094,-0.70822 -0.10118,-0.23608 -1.2141,-0.30352 -1.14665,0.0675 -0.84312,0.23607 -1.14665,0.30353 -1.78743,1.04547 -1.38272,1.4839 -0.33725,0.4047 -0.23608,0.57333 0.0674,0.43842 0.2698,0.6745 0.5396,0.33725 -0.10117,0.2698 h -0.20235 l -1.01175,-0.5396 -0.1349,-0.30352 -0.6745,-0.64078 -0.30353,-0.64077 -0.5396,-0.5396 -0.47215,-0.77568 0.0674,-0.50587 0.74195,-0.8094 0.77568,-0.70823 0.64077,-0.16862 0.23608,-0.57333 0.30352,0.0675 0.4047,-0.4047 2.698,-0.9443 z m 0.10118,10.31985 -0.77568,0.0337 -1.68625,0.5396 -0.47215,0.1349 -1.6188,1.45018 -0.4047,0.37097 -0.64077,1.31528 -0.2698,0.30352 -0.10118,1.14665 0.1349,0.23608 -0.0337,0.23607 0.23607,0.37098 0.74195,0.23607 1.01175,-0.10117 1.01175,-0.33725 0.1349,-0.20235 0.5396,-0.1349 2.73173,-2.25958 0.97802,-1.14665 0.50588,-0.74195 -0.91058,-1.14665 -0.4047,0.0674 z m 12.07355,-7.89165 1.85487,0.30352 0.74195,0.33725 1.31528,1.0792 0.0674,1.14665 -0.1349,1.92233 0.1349,0.6745 0.6745,-1.31528 1.8886,-2.0235 0.87685,-0.8094 1.68625,-1.31527 0.5396,-0.10118 1.45017,0.33725 0.74195,0.50588 0.74195,1.0792 -0.0337,0.60705 0.16862,0.30352 0.0337,0.8094 -0.2698,0.2698 0.0337,0.2698 -0.74195,1.55135 0.0337,0.47215 -0.4047,0.43843 0.0337,0.20235 -0.1349,1.04547 -0.16862,0.23608 h -0.20235 l 0.0675,0.37097 -0.20235,0.16863 -0.16863,0.91057 0.0675,0.20235 -0.16862,1.14665 0.10117,0.5396 -0.20235,0.43843 0.16863,0.33725 0.50587,0.1349 1.6188,-1.28155 0.30353,-0.0337 0.0674,-0.33725 0.97802,-0.70822 0.77568,-0.91058 0.16862,0.10118 -0.10117,0.6745 -0.9443,1.6188 -0.77568,0.70822 -0.0337,0.33725 -1.24783,0.8094 h -0.23607 l -0.20235,0.4047 -0.84313,0.30353 -0.57332,-0.2698 -0.10118,-0.20235 -0.87685,-0.16863 -0.9443,-1.55135 -0.4047,-2.0235 -0.10117,-0.6745 0.10117,-0.33725 0.2698,-1.58507 1.01175,-3.3725 0.47215,-0.77568 0.2698,-1.24782 -0.23607,-0.50588 -0.2698,-0.1349 -1.51763,0.9443 -1.71997,2.19213 -1.28155,2.22585 -0.87685,2.19212 0.0337,0.20235 -1.82115,4.28308 -0.33725,0.57332 -0.64077,1.95605 -0.2698,-0.33725 -0.20235,0.1349 -0.50588,-0.23607 v -0.30353 l -0.23607,-0.0674 0.0337,0.16863 -0.43842,-0.0337 -0.57333,-0.64077 0.0337,-0.50588 0.4047,-1.95605 0.43842,-1.41645 -0.10117,-0.70822 0.2698,-0.37098 -0.0674,-0.50587 0.84312,-3.70975 0.16863,-2.2933 -0.10118,-1.71998 z"
       id="text2"
       style="font-size:69.0688px;font-family:'Party LET';-inkscape-font-specification:'Party LET, Normal';fill:#3464b0;stroke:#eb8f0e;stroke-width:0.216"
       transform="scale(1.2404981,0.8061278)"
       aria-label="PanPan" />
  </g>
</svg>
