<?xml version="1.0" encoding="UTF-8" standalone="no"?>
<!-- Created with Inkscape (http://www.inkscape.org/) -->

<svg
   width="210mm"
   height="210mm"
   viewBox="0 0 210 210"
   version="1.1"
   id="svg1"
   inkscape:version="1.3.2 (091e20e, 2023-11-25, custom)"
   sodipodi:docname="panpangis.svg"
   inkscape:export-filename="panpangis.png"
   inkscape:export-xdpi="96"
   inkscape:export-ydpi="96"
   xmlns:inkscape="http://www.inkscape.org/namespaces/inkscape"
   xmlns:sodipodi="http://sodipodi.sourceforge.net/DTD/sodipodi-0.dtd"
   xmlns:xlink="http://www.w3.org/1999/xlink"
   xmlns="http://www.w3.org/2000/svg"
   xmlns:svg="http://www.w3.org/2000/svg">
  <sodipodi:namedview
     id="namedview1"
     pagecolor="#ffffff"
     bordercolor="#000000"
     borderopacity="0.25"
     inkscape:showpageshadow="2"
     inkscape:pageopacity="0.0"
     inkscape:pagecheckerboard="0"
     inkscape:deskcolor="#d1d1d1"
     inkscape:document-units="mm"
     inkscape:zoom="1.624025"
     inkscape:cx="396.54563"
     inkscape:cy="314.95821"
     inkscape:window-width="3840"
     inkscape:window-height="2054"
     inkscape:window-x="-11"
     inkscape:window-y="-11"
     inkscape:window-maximized="1"
     inkscape:current-layer="layer1" />
  <defs
     id="defs1">
    <linearGradient
       id="swatch4"
       inkscape:swatch="solid">
      <stop
         style="stop-color:#cf573d;stop-opacity:0;"
         offset="0"
         id="stop4" />
    </linearGradient>
    <linearGradient
       inkscape:collect="always"
       xlink:href="#swatch4"
       id="linearGradient4"
       x1="51.310848"
       y1="62.041019"
       x2="153.61935"
       y2="62.041019"
       gradientUnits="userSpaceOnUse" />
  </defs>
  <g
     inkscape:label="图层 1"
     inkscape:groupmode="layer"
     id="layer1">
    <ellipse
       style="fill:#000000;fill-opacity:0;stroke:#5d3e0e;stroke-width:10.752;stroke-dasharray:none;stroke-opacity:1"
       id="path1"
       cx="105.00146"
       cy="105.00018"
       rx="98.420845"
       ry="98.257927" />
    <path
       d="m 81.720524,94.544077 q -4.461823,2.04805 -9.764808,3.584087 -5.266414,1.499465 -10.203676,1.499465 -6.363583,0 -11.666569,-1.755471 -5.302985,-1.755471 -9.033361,-5.266413 -3.766949,-3.547515 -5.814998,-8.850501 -2.04805,-5.339558 -2.04805,-12.471159 0,-13.056316 7.607042,-20.590213 7.643613,-7.570469 20.955936,-7.570469 4.644684,0 9.472229,1.133741 4.864118,1.09717 10.459682,3.766949 v 8.594494 H 81.02565 q -1.133742,-0.877736 -3.291509,-2.304056 -2.157766,-1.42632 -4.242388,-2.377201 -2.52349,-1.133741 -5.741853,-1.865188 -3.181792,-0.768018 -7.241319,-0.768018 -9.143078,0 -14.482636,5.888143 -5.302986,5.85157 -5.302986,15.872384 0,10.569399 5.558992,16.457542 5.558992,5.85157 15.140938,5.85157 3.510942,0 6.985312,-0.694874 3.510942,-0.694874 6.144149,-1.792043 V 77.537951 H 59.959996 v -6.363583 h 21.760528 z m 31.854486,4.022955 H 92.070489 V 93.00804 H 99.20209 V 49.669847 h -7.131601 v -5.558992 h 21.504521 v 5.558992 h -7.1316 V 93.00804 h 7.1316 z m 51.89612,-15.543234 q 0,3.181791 -1.49947,6.290438 -1.46289,3.108647 -4.13267,5.266414 -2.92579,2.340628 -6.83902,3.657231 -3.87667,1.316603 -9.36252,1.316603 -5.88814,0 -10.60597,-1.097169 -4.68125,-1.09717 -9.54537,-3.254936 v -9.069934 h 0.51201 q 4.13267,3.437797 9.54538,5.302985 5.4127,1.865189 10.1671,1.865189 6.7293,0 10.45968,-2.52349 3.76695,-2.52349 3.76695,-6.729306 0,-3.620659 -1.79204,-5.339558 -1.75548,-1.718899 -5.37613,-2.669779 -2.74293,-0.731446 -5.96129,-1.206886 -3.18179,-0.475441 -6.76588,-1.206887 -7.24132,-1.536037 -10.75226,-5.229841 -3.47437,-3.730376 -3.47437,-9.691663 0,-6.839023 5.77843,-11.191129 5.77842,-4.388677 14.66549,-4.388677 5.74186,0 10.53283,1.097169 4.79097,1.09717 8.48478,2.706351 v 8.557922 h -0.51202 q -3.10864,-2.633207 -8.19219,-4.352105 -5.04698,-1.755472 -10.34997,-1.755472 -5.815,0 -9.36251,2.413773 -3.51094,2.413773 -3.51094,6.217294 0,3.401225 1.75547,5.339558 1.75547,1.938332 6.18072,2.962357 2.34063,0.512013 6.65616,1.243459 4.31553,0.731446 7.31446,1.499465 6.07101,1.609182 9.14308,4.864118 3.07208,3.254936 3.07208,9.106506 z"
       id="text3"
       style="font-size:74.9001px;font-family:Sans;-inkscape-font-specification:'Sans, Normal';fill:#2d1c6a;stroke:#000000;stroke-width:1.30691;stroke-opacity:1"
       transform="scale(1.0561977,0.94679243)"
       aria-label="GIS" />
    <text
       xml:space="preserve"
       style="font-style:normal;font-variant:normal;font-weight:normal;font-stretch:normal;font-size:19.7556px;font-family:Sans;-inkscape-font-specification:'Sans, Normal';font-variant-ligatures:normal;font-variant-caps:normal;font-variant-numeric:normal;font-variant-east-asian:normal;fill:#000000;fill-opacity:0;stroke:#0889eb;stroke-width:1;stroke-dasharray:none;stroke-opacity:1"
       x="111.59901"
       y="61.583103"
       id="text4"><tspan
         sodipodi:role="line"
         id="tspan4"
         style="stroke-width:1"
         x="111.59901"
         y="61.583103" /></text>
    <path
       style="fill:#0b0f12;fill-opacity:1;stroke:#000000;stroke-width:3.33672;stroke-dasharray:none;stroke-dashoffset:0;stroke-opacity:1"
       d="m 17.604176,106.0466 c 174.919384,0.19064 175.116774,0.18916 175.116774,0.18916"
       id="path4" />
    <path
       d="m 38.819093,167.8409 q 0,1.43266 -0.506496,2.66272 -0.492026,1.2156 -1.389249,2.11282 -1.114293,1.11429 -2.633783,1.67867 -1.519491,0.54991 -3.834905,0.54991 h -2.865325 v 8.0316 H 24.72401 v -21.54783 h 5.846421 q 1.939159,0 3.284993,0.33285 1.345835,0.31837 2.387771,1.01299 1.230064,0.82487 1.895746,2.05493 0.680152,1.23006 0.680152,3.11134 z m -2.981095,0.0724 q 0,-1.11429 -0.390726,-1.93916 -0.390727,-0.82486 -1.18665,-1.34583 -0.694624,-0.44861 -1.591847,-0.63674 -0.882752,-0.2026 -2.243058,-0.2026 h -2.836382 v 8.61045 h 2.416713 q 1.736561,0 2.821911,-0.3039 1.085351,-0.31837 1.765504,-0.99852 0.680153,-0.69463 0.955108,-1.46161 0.289427,-0.76698 0.289427,-1.72209 z m 18.378598,14.96337 h -2.70614 v -1.72209 q -0.361783,0.24601 -0.984051,0.69462 -0.607796,0.43414 -1.18665,0.69463 -0.680153,0.33284 -1.562904,0.54991 -0.882752,0.23154 -2.069402,0.23154 -2.185172,0 -3.704662,-1.44713 -1.519491,-1.44714 -1.519491,-3.6902 0,-1.83786 0.781453,-2.96662 0.795923,-1.14324 2.257528,-1.79445 1.476077,-0.65121 3.545478,-0.88275 2.069402,-0.23154 4.442701,-0.34731 v -0.41967 q 0,-0.92616 -0.332841,-1.53396 -0.318369,-0.6078 -0.926165,-0.95511 -0.578854,-0.33284 -1.389249,-0.44861 -0.810395,-0.11577 -1.693146,-0.11577 -1.070879,0 -2.387771,0.28943 -1.316892,0.27495 -2.720612,0.81039 h -0.144713 v -2.76403 q 0.795923,-0.21707 2.300943,-0.47755 1.505019,-0.26048 2.966624,-0.26048 1.707618,0 2.966624,0.28942 1.273478,0.27496 2.199644,0.95511 0.911694,0.66568 1.389248,1.72209 0.477554,1.05641 0.477554,2.61931 z m -2.70614,-3.97962 v -4.50059 q -1.244535,0.0724 -2.937682,0.21707 -1.678675,0.14472 -2.662726,0.41967 -1.172178,0.33284 -1.895745,1.04194 -0.723567,0.69462 -0.723567,1.92469 0,1.38924 0.839338,2.09834 0.839337,0.69462 2.561426,0.69462 1.432663,0 2.619313,-0.54991 1.186649,-0.56438 2.199643,-1.34583 z m 21.460994,3.97962 h -2.720611 v -9.20377 q 0,-1.1143 -0.130242,-2.08388 -0.130243,-0.98405 -0.477555,-1.53396 -0.361783,-0.60779 -1.041936,-0.89722 -0.680153,-0.3039 -1.765503,-0.3039 -1.114293,0 -2.329886,0.54991 -1.215592,0.54991 -2.329885,1.40372 v 12.0691 H 59.45522 v -16.16449 h 2.720612 v 1.79445 q 1.273478,-1.05641 2.633783,-1.64973 1.360306,-0.59333 2.792969,-0.59333 2.619312,0 3.994089,1.57738 1.374777,1.57737 1.374777,4.544 z M 92.522226,167.8409 q 0,1.43266 -0.506497,2.66272 -0.492025,1.2156 -1.389248,2.11282 -1.114293,1.11429 -2.633784,1.67867 -1.51949,0.54991 -3.834904,0.54991 h -2.865325 v 8.0316 h -2.865325 v -21.54783 h 5.84642 q 1.93916,0 3.284994,0.33285 1.345834,0.31837 2.387771,1.01299 1.230064,0.82487 1.895745,2.05493 0.680153,1.23006 0.680153,3.11134 z m -2.981096,0.0724 q 0,-1.11429 -0.390726,-1.93916 -0.390726,-0.82486 -1.186649,-1.34583 -0.694625,-0.44861 -1.591848,-0.63674 -0.882751,-0.2026 -2.243057,-0.2026 h -2.836382 v 8.61045 h 2.416713 q 1.736561,0 2.821911,-0.3039 1.08535,-0.31837 1.765503,-0.99852 0.680153,-0.69463 0.955109,-1.46161 0.289426,-0.76698 0.289426,-1.72209 z m 18.3786,14.96337 h -2.70614 v -1.72209 q -0.36178,0.24601 -0.98405,0.69462 -0.6078,0.43414 -1.18665,0.69463 -0.68015,0.33284 -1.5629,0.54991 -0.88276,0.23154 -2.069406,0.23154 -2.185172,0 -3.704663,-1.44713 -1.51949,-1.44714 -1.51949,-3.6902 0,-1.83786 0.781452,-2.96662 0.795924,-1.14324 2.257529,-1.79445 1.476076,-0.65121 3.545478,-0.88275 2.0694,-0.23154 4.4427,-0.34731 v -0.41967 q 0,-0.92616 -0.33284,-1.53396 -0.31837,-0.6078 -0.92617,-0.95511 -0.57885,-0.33284 -1.38924,-0.44861 -0.8104,-0.11577 -1.69315,-0.11577 -1.07088,0 -2.387772,0.28943 -1.316891,0.27495 -2.720611,0.81039 h -0.144714 v -2.76403 q 0.795924,-0.21707 2.300943,-0.47755 1.505019,-0.26048 2.966624,-0.26048 1.70762,0 2.96662,0.28942 1.27348,0.27496 2.19965,0.95511 0.91169,0.66568 1.38925,1.72209 0.47755,1.05641 0.47755,2.61931 z m -2.70614,-3.97962 v -4.50059 q -1.24453,0.0724 -2.93768,0.21707 -1.67868,0.14472 -2.662727,0.41967 -1.172179,0.33284 -1.895746,1.04194 -0.723566,0.69462 -0.723566,1.92469 0,1.38924 0.839337,2.09834 0.839338,0.69462 2.561422,0.69462 1.43267,0 2.61932,-0.54991 1.18665,-0.56438 2.19964,-1.34583 z m 21.46099,3.97962 h -2.72061 v -9.20377 q 0,-1.1143 -0.13024,-2.08388 -0.13024,-0.98405 -0.47756,-1.53396 -0.36178,-0.60779 -1.04193,-0.89722 -0.68015,-0.3039 -1.7655,-0.3039 -1.1143,0 -2.32989,0.54991 -1.21559,0.54991 -2.32989,1.40372 v 12.0691 h -2.72061 v -16.16449 h 2.72061 v 1.79445 q 1.27348,-1.05641 2.63379,-1.64973 1.3603,-0.59333 2.79297,-0.59333 2.61931,0 3.99409,1.57738 1.37477,1.57737 1.37477,4.544 z"
       id="text5"
       style="font-size:29.6373px;font-family:Sans;-inkscape-font-specification:'Sans, Normal';fill:#e50e3e;stroke:#c68e37;stroke-width:0.445388"
       transform="scale(1.4231616,0.70266089)"
       aria-label="PanPan" />
    <path
       d="m 44.070898,155.42647 h 21.6562 v -4.92275 H 50.531864 v -2.42766 h 15.195234 v -4.38327 h 4.666253 v 4.38327 H 85.34929 v 2.42766 H 70.393351 v 4.92275 h 8.345414 q 8.046295,-3.2706 15.643912,-8.19335 l 3.649249,1.82075 q -5.862728,3.70892 -11.426338,6.3726 H 101.5017 v 2.42766 H 81.04198 q -7.388234,2.93342 -17.947128,5.69826 v 3.15257 q 14.656821,-1.92189 26.4421,-4.60243 l 1.914362,2.52881 q -13.131316,2.54567 -28.356462,4.60244 v 2.07362 q 0,1.71958 2.871542,1.75331 h 19.682015 q 4.606429,0 5.324313,-2.42765 0.478592,-1.58473 0.957181,-4.9902 2.392951,0.53949 5.025196,1.07896 -0.777709,3.47291 -1.316123,5.05763 -1.316122,3.77635 -9.09321,3.77635 H 65.188684 q -6.760084,0 -6.760084,-4.14725 v -6.67605 q -6.102023,1.4667 -13.161227,2.89971 -1.196475,-1.38243 -2.452773,-2.59626 17.588183,-3.20315 29.373464,-7.18182 H 44.070898 Z m 61.199712,16.72387 h 25.9635 V 161.76535 H 110.8342 v -2.69739 h 20.39991 v -9.6432 h -22.6732 v -2.6974 h 50.73055 v 2.6974 h -22.79285 v 9.6432 h 20.87848 v 2.69739 h -20.87848 v 10.38499 h 26.08315 v 2.69741 h -57.31115 z"
       id="text6"
       style="font-size:43.3845px;font-family:Sans;-inkscape-font-specification:'Sans, Normal';fill:#3a3a35;stroke:#342664;stroke-width:0.691367;stroke-opacity:1;fill-opacity:1"
       aria-label="老王" />
  </g>
</svg>
