<?xml version="1.0" encoding="UTF-8" standalone="no"?>
<!-- Created with Inkscape (http://www.inkscape.org/) -->

<svg
   width="100mm"
   height="100mm"
   viewBox="0 0 100 100"
   version="1.1"
   id="svg1"
   inkscape:version="1.3.2 (091e20e, 2023-11-25, custom)"
   sodipodi:docname="pcwang_gis2.svg"
   xml:space="preserve"
   xmlns:inkscape="http://www.inkscape.org/namespaces/inkscape"
   xmlns:sodipodi="http://sodipodi.sourceforge.net/DTD/sodipodi-0.dtd"
   xmlns:xlink="http://www.w3.org/1999/xlink"
   xmlns="http://www.w3.org/2000/svg"
   xmlns:svg="http://www.w3.org/2000/svg"><sodipodi:namedview
     id="namedview1"
     pagecolor="#ffffff"
     bordercolor="#000000"
     borderopacity="0.25"
     inkscape:showpageshadow="2"
     inkscape:pageopacity="0.0"
     inkscape:pagecheckerboard="0"
     inkscape:deskcolor="#d1d1d1"
     inkscape:document-units="mm"
     inkscape:zoom="3.2480499"
     inkscape:cx="267.08333"
     inkscape:cy="189.19044"
     inkscape:window-width="3840"
     inkscape:window-height="2054"
     inkscape:window-x="-11"
     inkscape:window-y="-11"
     inkscape:window-maximized="1"
     inkscape:current-layer="layer1" /><defs
     id="defs1"><linearGradient
       id="linearGradient6"
       inkscape:collect="always"><stop
         style="stop-color:#050505;stop-opacity:1;"
         offset="0"
         id="stop6" /><stop
         style="stop-color:#050505;stop-opacity:0;"
         offset="1"
         id="stop7" /></linearGradient><linearGradient
       inkscape:collect="always"
       xlink:href="#linearGradient6"
       id="linearGradient7"
       x1="15.287557"
       y1="50.351144"
       x2="25.776083"
       y2="50.351144"
       gradientUnits="userSpaceOnUse" /><linearGradient
       inkscape:collect="always"
       xlink:href="#linearGradient6"
       id="linearGradient8"
       x1="51.50156"
       y1="51.988342"
       x2="56.489281"
       y2="51.988342"
       gradientUnits="userSpaceOnUse" /><linearGradient
       inkscape:collect="always"
       xlink:href="#linearGradient6"
       id="linearGradient9"
       x1="81.318075"
       y1="53.226303"
       x2="90.734975"
       y2="53.226303"
       gradientUnits="userSpaceOnUse" /></defs><g
     inkscape:label="图层 1"
     inkscape:groupmode="layer"
     id="layer1"><ellipse
       style="fill:#117cbd;fill-opacity:0;stroke:#1586e2;stroke-width:5;stroke-dasharray:none;stroke-opacity:1"
       id="path1"
       cx="49.975182"
       cy="50.138096"
       rx="43.46664"
       ry="43.466637" /><path
       d="M 57.686873,51.559428 48.316957,87.610603 H 42.917755 L 35.339502,57.68498 27.930732,87.610603 H 22.652588 L 13.11319,51.559428 h 4.914969 l 7.578252,29.974046 7.457195,-29.974046 h 4.866545 l 7.529829,30.264586 7.529829,-30.264586 z"
       id="text1"
       style="font-size:49.5855px;font-family:Sans;-inkscape-font-specification:'Sans, Normal';fill:#fffefe;fill-opacity:0;stroke:#552f1b;stroke-width:2.268"
       transform="scale(1.4137338,0.70734674)"
       aria-label="W" /><path
       d="m 35.766311,46.488163 q 0,0.793566 -0.280553,1.474911 -0.272538,0.673329 -0.769519,1.17031 -0.617218,0.617218 -1.45888,0.929835 -0.841661,0.304601 -2.124192,0.304601 h -1.587133 v 4.448781 H 27.958902 V 42.881044 h 3.238391 q 1.07412,0 1.819592,0.184364 0.745471,0.176348 1.32261,0.561107 0.681345,0.456902 1.050073,1.138247 0.376743,0.681344 0.376743,1.723401 z m -1.651259,0.04008 q 0,-0.617218 -0.216427,-1.07412 -0.216427,-0.456902 -0.657297,-0.745471 -0.38476,-0.248491 -0.881741,-0.352696 -0.488965,-0.112222 -1.242452,-0.112222 h -1.571101 v 4.769414 h 1.338642 q 0.961899,0 1.563085,-0.168333 0.601187,-0.176348 0.977931,-0.553091 0.376743,-0.38476 0.529044,-0.809598 0.160316,-0.424839 0.160316,-0.953883 z"
       id="text2"
       style="font-size:16.4164px;font-family:Sans;-inkscape-font-specification:'Sans, Normal';fill:#fffefe;fill-opacity:0;stroke:#d4a13f;stroke-width:1.5"
       transform="scale(1.158252,0.86337001)"
       aria-label="P" /><path
       d="m 67.589173,46.53207 q -0.381512,0.166477 -0.693657,0.312145 -0.305209,0.145668 -0.804643,0.30521 -0.423131,0.131794 -0.922564,0.22197 -0.492496,0.09711 -1.089042,0.09711 -1.123724,0 -2.046289,-0.312146 -0.915627,-0.319082 -1.595411,-0.99193 -0.665911,-0.658974 -1.040486,-1.671714 -0.374575,-1.019676 -0.374575,-2.365371 0,-1.276329 0.360702,-2.282132 0.360701,-1.005803 1.040486,-1.69946 0.658974,-0.672848 1.588475,-1.026613 0.936437,-0.353765 2.074035,-0.353765 0.832389,0 1.657841,0.20116 0.832388,0.201161 1.845128,0.707531 v 1.630094 h -0.104049 q -0.853198,-0.714467 -1.692523,-1.040486 -0.839326,-0.326019 -1.796573,-0.326019 -0.783832,0 -1.41506,0.256654 -0.624292,0.249716 -1.116789,0.783832 -0.478623,0.520243 -0.749149,1.317949 -0.26359,0.790769 -0.26359,1.831255 0,1.089042 0.291336,1.872875 0.298273,0.783832 0.763023,1.276329 0.48556,0.513306 1.130661,0.763023 0.652038,0.24278 1.373442,0.24278 0.991929,0 1.859001,-0.339892 0.867072,-0.339892 1.623158,-1.019676 h 0.09711 z"
       id="text3"
       style="font-size:14.2061px;font-family:Sans;-inkscape-font-specification:'Sans, Normal';fill:#fffefe;fill-opacity:0;stroke:#d4a13f;stroke-width:1.5"
       transform="scale(1.0064095,0.99363135)"
       aria-label="C" /><path
       d="m 26.393566,51.920713 q -0.873343,0.400878 -1.911332,0.701537 -1.03083,0.293501 -1.997234,0.293501 -1.245587,0 -2.283576,-0.343611 -1.037989,-0.34361 -1.76816,-1.03083 -0.73733,-0.694379 -1.138209,-1.732368 -0.400879,-1.045147 -0.400879,-2.441064 0,-2.5556 1.488978,-4.03026 1.496136,-1.481819 4.101846,-1.481819 0.909135,0 1.854063,0.221915 0.952087,0.214756 2.047344,0.73733 v 1.682258 h -0.128854 q -0.221915,-0.171805 -0.644269,-0.450988 -0.422354,-0.279184 -0.830391,-0.465306 -0.49394,-0.221915 -1.123892,-0.365086 -0.622793,-0.150329 -1.417392,-0.150329 -1.789636,0 -2.834783,1.152526 -1.037989,1.145367 -1.037989,3.106808 0,2.06882 1.088099,3.221345 1.088098,1.145367 2.963637,1.145367 0.68722,0 1.367282,-0.136012 0.68722,-0.136012 1.202636,-0.350769 v -2.612869 h -2.85626 v -1.245586 h 4.259335 z"
       id="text4"
       style="font-size:14.6607px;font-family:Sans;-inkscape-font-specification:'Sans, Normal';fill:#3d2323;fill-opacity:0;stroke:#c55f37;stroke-width:1.49874;stroke-linecap:round"
       transform="scale(0.87049939,1.1487659)"
       aria-label="G" /><path
       d="m 56.246573,56.535774 h -4.493635 v -1.16162 h 1.490236 v -9.05605 h -1.490236 v -1.16162 h 4.493635 v 1.16162 h -1.490236 v 9.05605 h 1.490236 z"
       id="text5"
       style="font-size:15.6513px;font-family:Sans;-inkscape-font-specification:'Sans, Normal';fill:#3d2323;fill-opacity:0;stroke:#c55f37;stroke-width:1.6;stroke-linecap:round"
       transform="scale(0.92866429,1.0768154)"
       aria-label="I" /><path
       d="m 89.306209,55.087075 q 0,0.676026 -0.318586,1.336511 -0.310817,0.660485 -0.878057,1.118939 -0.621633,0.497306 -1.453066,0.777041 -0.823664,0.279735 -1.989226,0.279735 -1.251036,0 -2.253418,-0.233113 -0.994613,-0.233112 -2.028078,-0.691566 V 55.74756 h 0.108786 q 0.878057,0.730419 2.028077,1.12671 1.150021,0.396291 2.160174,0.396291 1.429756,0 2.222338,-0.536159 0.800352,-0.536158 0.800352,-1.429755 0,-0.769271 -0.38075,-1.13448 -0.37298,-0.365209 -1.142251,-0.56724 -0.58278,-0.155408 -1.266576,-0.256424 -0.676026,-0.101015 -1.437526,-0.256423 -1.538542,-0.326357 -2.284501,-1.111169 -0.738189,-0.792582 -0.738189,-2.059159 0,-1.453066 1.227725,-2.377745 1.227725,-0.932449 3.115934,-0.932449 1.219955,0 2.237879,0.233112 1.017923,0.233112 1.802735,0.57501 v 1.818276 h -0.108786 q -0.660485,-0.559469 -1.740572,-0.924678 -1.072316,-0.37298 -2.199026,-0.37298 -1.235495,0 -1.989225,0.512847 -0.745959,0.512847 -0.745959,1.32097 0,0.722648 0.372979,1.13448 0.37298,0.411831 1.3132,0.629403 0.497306,0.108786 1.414214,0.264194 0.916909,0.155408 1.554082,0.318587 1.289889,0.341898 1.942603,1.033464 0.652714,0.691567 0.652714,1.934832 z"
       id="text6"
       style="font-size:15.9138px;font-family:Sans;-inkscape-font-specification:'Sans, Normal';fill:#3d2323;fill-opacity:0;stroke:#c55f37;stroke-width:1.62684;stroke-linecap:round"
       transform="scale(0.96320193,1.0382039)"
       aria-label="S" /><g
       id="text9"
       style="font-size:5.72777px;font-family:SimHei;-inkscape-font-specification:'SimHei, Normal';fill-opacity:0;stroke:#c55f37;stroke-width:0.161;stroke-linecap:round"
       transform="scale(1.2385625,0.8073876)"
       aria-label="庾信平生最萧瑟 &#10;暮年诗赋动江关"><path
         d="m 22.591474,26.804476 q -0.268489,0 -0.827841,0.06712 v 0.581727 h 0.671223 v 0.313237 h -0.671223 v 0.536979 h 0.962086 q 0.02237,-1.454317 0,-2.147914 h 0.49223 q -0.06712,0.447482 -0.06712,2.147914 h 1.029209 V 27.766562 H 23.44169 v -0.313237 h 0.738346 v -0.559353 q -0.514605,0 -0.783094,0.02237 v -0.380359 q 0.335612,0.02237 0.626475,0.02237 h 0.559352 q -0.02237,0.335611 -0.02237,0.693597 v 0.693597 q 0,0.357986 0.02237,0.693597 h -1.163453 q 0.268489,0.536979 0.715971,0.805468 0.447482,0.246115 1.051583,0.357985 -0.11187,0.0895 -0.290863,0.447482 -0.335612,-0.11187 -0.604101,-0.246115 -0.246115,-0.11187 -0.536978,-0.335611 -0.26849,-0.223741 -0.425108,-0.469856 -0.156619,-0.246115 -0.26849,-0.514605 -0.335611,0.626475 -0.648848,0.894964 -0.313238,0.246115 -0.626475,0.402734 -0.290864,0.156619 -0.604101,0.290863 -0.0895,-0.134244 -0.38036,-0.425107 0.290864,-0.04475 0.581727,-0.156619 0.290863,-0.0895 0.514604,-0.223741 0.246115,-0.156619 0.425108,-0.357986 0.178993,-0.201367 0.313238,-0.469856 h -1.275324 q 0.02237,-0.425108 0.02237,-0.626475 V 27.31908 q 0,-0.268489 -0.04475,-0.738345 l 0.49223,-0.04475 q 0.246115,-0.02237 0.581727,-0.134245 0.11187,0.313237 0.178992,0.402734 z m -2.72964,3.020503 q 0.246115,-0.313237 0.38036,-0.671223 0.134244,-0.380359 0.156618,-0.738345 0.04475,-0.38036 0.02238,-2.863885 h 2.170287 q -0.04475,-0.201367 -0.134244,-0.447482 0.201367,-0.02237 0.469856,-0.11187 0.06712,0.246115 0.134244,0.559352 h 1.14108 q 0.380359,0 0.805467,-0.02237 v 0.38036 q -0.425108,-0.02237 -0.805467,-0.02237 h -3.356116 q 0,1.812302 -0.04475,2.34928 -0.02237,0.536979 -0.156618,1.029209 -0.111871,0.469856 -0.38036,0.917338 -0.268489,-0.268489 -0.402734,-0.357986 z m 10.58295,-1.543812 q -0.02237,0.268489 -0.02237,0.894964 0,0.6041 0.02237,0.917338 h -0.425108 v -0.38036 h -1.924173 v 0.469856 h -0.447482 q 0.02237,-0.335611 0.02237,-0.939712 0,-0.626475 -0.02237,-0.962086 z m -3.154748,-3.042878 q -0.134245,0.134244 -0.425108,0.894964 v 3.065252 q 0,0.671223 0.02237,1.051582 h -0.49223 q 0.06712,-0.402733 0.06712,-1.073956 v -2.259785 q -0.268489,0.536979 -0.514604,0.894964 -0.134245,-0.223741 -0.335612,-0.357985 0.246115,-0.268489 0.604101,-0.939712 0.357985,-0.693598 0.536978,-1.454317 0.246115,0.0895 0.536979,0.178993 z m 2.72964,4.116834 v -0.760719 h -1.924173 v 0.760719 z m 0.805468,-3.154748 q -0.447482,-0.02237 -1.767554,-0.02237 -1.320072,0 -1.789929,0.02237 v -0.38036 h 3.557483 z m -0.335612,0.805468 q -0.38036,-0.02237 -1.387194,-0.02237 -1.006835,0 -1.499065,0.02237 v -0.38036 q 0.425108,0.02237 1.454317,0.02237 1.051582,0 1.431942,-0.02237 z m 0,0.783093 q -0.313237,-0.02237 -1.36482,-0.02237 -1.029209,0 -1.521439,0.02237 v -0.380359 q 0.469856,0.02237 1.521439,0.02237 1.073957,0 1.36482,-0.02237 z m -1.499065,-2.752014 q 0.06712,0.134244 0.134245,0.290863 0.06712,0.156619 0.134244,0.335612 -0.201366,0.06712 -0.402733,0.11187 -0.156619,-0.469856 -0.26849,-0.581726 0.223741,-0.0895 0.402734,-0.156619 z m 6.175252,0.335611 q 0.335612,0 0.827842,-0.02237 v 0.425108 q -0.469856,-0.02237 -0.827842,-0.02237 h -0.939712 v 2.12554 h 1.36482 q 0.49223,0 0.917338,-0.02237 v 0.425108 q -0.425108,-0.02238 -0.917338,-0.02238 h -1.36482 v 1.029209 q 0,0.49223 0.02237,0.939712 h -0.514604 q 0.02237,-0.447482 0.02237,-0.939712 v -1.029209 h -1.63331 q -0.313237,0 -0.671223,0.02238 v -0.425108 q 0.357986,0.02237 0.715972,0.02237 h 1.588561 v -2.12554 h -1.051583 q -0.335611,0 -0.805468,0.02237 v -0.425108 q 0.469857,0.02237 0.783094,0.02237 z m -0.536978,1.991295 q 0.514604,-0.626474 0.87259,-1.36482 0.223741,0.156619 0.447482,0.268489 -0.559353,0.87259 -0.939713,1.364821 -0.178992,-0.156619 -0.380359,-0.26849 z m -1.74518,0.223741 q -0.335612,-0.671223 -0.827842,-1.230575 0.178993,-0.134245 0.357986,-0.290863 0.559352,0.671223 0.894964,1.185827 -0.268489,0.201367 -0.425108,0.335611 z m 5.638273,-2.058417 q -0.134244,0.156619 -0.223741,0.402734 -0.0895,0.223741 -0.178993,0.447482 h 1.342447 v -0.783094 q 0,-0.290863 -0.02238,-0.559352 h 0.514605 q -0.02237,0.246115 -0.02237,0.559352 v 0.783094 h 0.98446 q 0.357986,0 0.805468,-0.02237 v 0.447482 q -0.425108,-0.02237 -0.805468,-0.02237 h -0.98446 v 1.006834 H 40.625 q 0.313237,0 0.760719,-0.02237 v 0.447482 Q 40.960611,28.19167 40.625,28.19167 h -0.693597 v 1.342446 h 1.342446 q 0.357985,0 0.827841,-0.02237 v 0.425108 q -0.447482,-0.02237 -0.827841,-0.02237 h -3.221871 q -0.38036,0 -0.783093,0.02237 v -0.425108 q 0.425108,0.02237 0.783093,0.02237 h 1.409569 V 28.19167 h -0.827842 q -0.313238,0 -0.648849,0.02237 v -0.447482 q 0.335611,0.02237 0.648849,0.02237 h 0.827842 v -1.006834 h -1.499065 q -0.201367,0.469856 -0.402734,0.805467 -0.246115,-0.11187 -0.536978,-0.156618 0.246115,-0.26849 0.514604,-0.850216 0.290863,-0.604101 0.402734,-1.275324 z m 4.47482,3.915468 q 0.178993,-0.02237 0.559353,-0.06712 v -1.879424 q -0.290863,0 -0.604101,0.02237 v -0.38036 q 0.313238,0.02237 0.626475,0.02237 h 3.49036 q 0.402734,0 0.783093,-0.02237 v 0.38036 q -0.380359,-0.02237 -0.783093,-0.02237 h -1.767554 v 1.588561 l 0.313237,-0.0895 q 0,0.201367 0.02237,0.335611 -0.178992,0.04475 -0.335611,0.06712 0,0.402733 0.02237,0.783093 h -0.425108 q 0.02237,-0.38036 0.02237,-0.715971 -0.246115,0.04475 -0.738345,0.156619 -0.469856,0.0895 -1.029209,0.223741 -0.06712,-0.246116 -0.156619,-0.402734 z m 4.139209,-4.161583 q -0.02237,0.290863 -0.02237,0.536978 v 0.402734 q 0,0.246115 0.02237,0.559353 H 43.712626 Q 43.735,26.468864 43.735,26.222749 v -0.402734 q 0,-0.246115 -0.02237,-0.536978 z m -1.610935,2.573022 q 0.402734,0.02237 0.738345,0.02237 h 1.118705 q -0.246115,0.939712 -0.581726,1.454316 0.559352,0.357986 1.073956,0.447482 -0.201366,0.156619 -0.246115,0.357986 -0.559352,-0.178993 -1.051582,-0.581727 -0.290864,0.313238 -0.783094,0.648849 -0.0895,-0.134244 -0.313237,-0.268489 0.469856,-0.156619 0.805467,-0.559353 -0.380359,-0.380359 -0.581726,-1.185827 h -0.178993 z m 1.163453,-1.968921 V 25.5739 h -2.550647 v 0.313238 z m 0,0.6041 v -0.290863 h -2.550647 v 0.290863 z m -0.626475,1.700432 q 0.0895,0.536979 0.447482,0.939712 0.26849,-0.380359 0.402734,-0.939712 z m -1.141079,0.38036 v -0.38036 h -0.98446 v 0.38036 z m 0,0.604101 v -0.313238 h -0.98446 v 0.447482 z m 0,-1.297698 v -0.38036 h -0.98446 v 0.38036 z m 6.466115,-1.767554 q -0.02237,0.223741 -0.02237,0.402734 h 1.678058 q -0.02237,0.268489 -0.02237,0.648848 0.425108,0 0.783093,-0.02237 v 0.357986 q -0.357985,-0.02237 -0.783093,-0.02237 0,0.38036 0.02237,0.693597 h -1.678058 v 1.342446 q 0,0.38036 0.02237,0.715971 h -0.469856 q 0.02237,-0.335611 0.02237,-0.715971 v -1.342446 h -0.87259 q -0.447482,0 -0.783093,0.02237 v -0.357986 q 0.335611,0.02237 0.783093,0.02237 h 0.87259 v -0.38036 h -1.633309 q -0.425108,0 -0.738345,0.02237 v -0.357986 q 0.335611,0.02237 0.738345,0.02237 H 50.93946 V 26.82685 h -0.850216 q -0.469856,0 -0.805467,0.02237 v -0.357986 q 0.335611,0.02238 0.805467,0.02238 h 0.850216 q 0,-0.178993 -0.02237,-0.402734 z m -1.342446,-0.604101 q 0,-0.111871 -0.02237,-0.38036 h 0.49223 q -0.04475,0.246115 -0.04475,0.38036 h 1.342446 q 0,-0.111871 -0.02237,-0.402734 h 0.49223 q -0.04475,0.290863 -0.04475,0.402734 h 0.805468 q 0.313237,0 0.671223,-0.02237 v 0.402734 q -0.357986,-0.02237 -0.671223,-0.02237 h -0.805468 q 0,0.134244 0.02237,0.357985 H 51.81205 v -0.357985 h -1.342446 v 0.357985 h -0.447482 q 0.02237,-0.223741 0.02237,-0.357985 h -0.738345 q -0.313237,0 -0.671223,0.02237 v -0.402734 q 0.357986,0.02237 0.671223,0.02237 z m -0.290863,2.975755 q -0.0895,0.134245 -0.111871,0.290864 0,0.134244 -0.06712,0.380359 -0.04475,0.223741 -0.178993,0.536979 -0.11187,0.313237 -0.313237,0.626475 -0.201367,-0.156619 -0.447482,-0.290864 0.313237,-0.290863 0.447482,-0.693597 0.134245,-0.425108 0.156619,-0.917338 0.268489,0.04475 0.514604,0.06712 z m 3.333741,-0.156618 Q 53.065,28.594404 53.065,28.95239 v 0.49223 q 0,0.402734 0.02237,0.738345 h -0.447482 q 0.02237,-0.335611 0.02237,-0.738345 v -0.49223 q 0,-0.357986 -0.02237,-0.626475 z m -0.49223,-0.469856 v -0.38036 h -1.230576 v 0.38036 z m -1.946547,0.760719 q -0.134245,0.134245 -0.201367,0.425108 -0.06712,0.290863 -0.156619,0.581727 -0.201367,-0.04475 -0.447482,-0.0895 0.156619,-0.268489 0.201367,-0.49223 0.06712,-0.223741 0.111871,-0.514604 0.223741,0.06712 0.49223,0.0895 z m 1.946547,-1.454317 V 26.82685 h -1.230576 v 0.335611 z m -0.648849,2.394029 q -0.0895,-0.335611 -0.178993,-0.559352 -0.06712,-0.223741 -0.134245,-0.357986 0.178993,-0.06712 0.402734,-0.134244 0.04475,0.134244 0.134245,0.425107 0.11187,0.26849 0.178993,0.514605 -0.178993,0.04475 -0.402734,0.11187 z m 6.577986,-1.521439 q -0.178993,0.111871 -0.425108,0.357986 -0.223741,0.223741 -0.626475,0.581727 -0.402734,0.335611 -1.230576,0.715971 h 1.566187 q 0.223741,0 0.26849,-0.134245 0.04475,-0.156618 0.04475,-0.49223 0.290863,0.201367 0.536978,0.223741 -0.156619,0.604101 -0.313237,0.693597 -0.134245,0.0895 -0.469856,0.0895 h -1.566187 q -0.447482,0 -0.514605,-0.223741 -0.626475,0.178992 -1.208201,0.313237 -0.0895,-0.246115 -0.246115,-0.469856 0.760719,-0.0895 1.431942,-0.268489 0,-0.783094 -0.02237,-1.118705 h 0.49223 q -0.02237,0.290863 -0.02237,0.98446 0.536979,-0.268489 1.029209,-0.671223 0.49223,-0.425108 0.760719,-0.939712 0.246115,0.201367 0.514605,0.357985 z m -2.573022,-2.752014 q 0.357986,0 0.715971,-0.02237 v 0.38036 q -0.38036,-0.02238 -0.87259,-0.02238 v 0.626475 q 0.402734,0 0.76072,-0.02237 v 0.357986 q -0.357986,-0.02237 -0.76072,-0.02237 v 0.581726 q 0.514605,-0.04475 0.87259,-0.0895 l 0.04475,0.357986 q -1.968921,0.201366 -2.215036,0.290863 l -0.0895,-0.447482 q 0.447482,-0.02237 0.98446,-0.06712 v -0.626475 q -0.536978,0 -0.827841,0.02237 v -0.357986 q 0.313237,0.02237 0.827841,0.02237 v -0.626475 q -0.6041,0 -0.894964,0.04475 v -0.402734 q 0.335612,0.02237 0.626475,0.02237 z m 2.461151,0 q 0.290863,0 0.648849,-0.02237 v 0.38036 q -0.357986,-0.02238 -0.850216,-0.02238 v 0.626475 q 0.536979,0 0.827842,-0.02237 v 0.357986 q -0.290863,-0.02237 -0.827842,-0.02237 v 0.6041 q 0.671223,0 1.051583,-0.02237 v 0.38036 q -0.357986,-0.02237 -0.715971,-0.02237 h -1.029209 q -0.313237,0 -0.648849,0.02237 v -0.38036 q 0.335612,0.02237 0.939712,0.02237 v -0.6041 h -0.783093 v -0.335612 q 0.290863,0.02237 0.783093,0.02237 v -0.626475 q -0.581726,0 -0.87259,0.02238 v -0.38036 q 0.357986,0.02237 0.536979,0.02237 z m 0.357986,2.99813 q 0.581726,0.626474 0.783093,0.872589 -0.201367,0.134245 -0.38036,0.313238 -0.268489,-0.402734 -0.738345,-0.894964 0.156619,-0.134245 0.335612,-0.290863 z m -3.37849,0.04475 q -0.0895,0.156618 -0.246115,0.447482 l -0.268489,0.559352 q -0.11187,-0.0895 -0.447482,-0.156618 0.268489,-0.402734 0.469856,-1.006835 0.223741,0.0895 0.49223,0.156619 z m 1.208202,-0.648849 q 0.201367,0.156618 0.581726,0.514604 -0.223741,0.156619 -0.357985,0.313238 -0.313238,-0.357986 -0.536979,-0.559353 0.178993,-0.134245 0.313238,-0.268489 z"
         id="path15" /><path
         d="m 25.052625,35.239512 q -0.335611,-0.02237 -0.693597,-0.02237 h -0.693597 q 0.178993,0.223741 0.559353,0.469856 0.380359,0.223741 0.939712,0.335611 -0.246115,0.178993 -0.335612,0.357986 -0.335611,-0.11187 -0.805467,-0.402734 0,1.006835 0.02237,1.409569 H 23.598309 V 37.14131 h -2.147914 v 0.223742 h -0.447482 q 0.02237,-0.671224 0.02237,-1.431943 -0.06712,0.06712 -0.290863,0.178993 -0.223741,0.11187 -0.559353,0.268489 -0.156618,-0.201367 -0.335611,-0.335611 0.49223,-0.111871 0.917338,-0.335612 0.425108,-0.223741 0.738345,-0.49223 h -0.738345 q -0.38036,0 -0.783093,0.02237 v -0.357986 q 0.402733,0.02237 0.760719,0.02237 h 1.006835 q 0.178992,-0.156618 0.246115,-0.268489 h -1.25295 q 0.02237,-0.246115 0.02237,-0.469856 v -0.469856 q 0,-0.246115 -0.02237,-0.469856 h 3.579856 q -0.02237,0.38036 -0.02237,0.559352 v 0.290864 q 0,0.201367 0.02237,0.559352 h -1.85705 q -0.04475,0.06712 -0.246115,0.268489 h 2.147913 q 0.357986,0 0.693597,-0.02237 z M 21.517518,32.55462 q 0,-0.134245 -0.02238,-0.402734 h 0.447482 q -0.02237,0.178993 -0.02237,0.402734 h 1.297698 q 0,-0.201367 -0.02237,-0.402734 h 0.447482 q -0.02237,0.201367 -0.02237,0.402734 h 0.648849 q 0.38036,0 0.648849,-0.02237 v 0.335611 q -0.290863,-0.02237 -0.648849,-0.02237 h -0.648849 v 0.335612 h -0.402734 v -0.335612 h -1.297698 v 0.335612 h -0.402733 v -0.335612 h -0.514605 q -0.425108,0 -0.805467,0.02237 v -0.335611 q 0.357985,0.02237 0.850215,0.02237 z m 2.34928,1.252949 v -0.313237 h -2.684892 v 0.313237 z m 0,0.559353 v -0.290863 h -2.684892 v 0.290863 z m -0.268489,1.879424 v -0.357985 h -2.147914 v 0.357985 z m 0,0.626475 v -0.357985 h -2.147914 v 0.357985 z m -1.610935,-1.655683 q -0.178993,0.178993 -0.469856,0.402734 h 2.058417 q -0.178993,-0.178993 -0.335612,-0.402734 z m 3.7141,-0.984461 q 0.492231,-0.469856 0.917339,-1.141079 0.425107,-0.671223 0.469856,-0.962086 0.335611,0.134244 0.626475,0.201367 -0.201367,0.201367 -0.447483,0.648849 h 2.259785 q 0.49223,0 1.006834,-0.02237 v 0.380359 q -0.469856,-0.02237 -1.006834,-0.02237 H 28.7891 v 0.917338 q 0.850216,0 1.499065,-0.02237 v 0.38036 q -0.671223,-0.02237 -1.499065,-0.02237 v 1.051583 h 1.141079 q 0.492231,0 0.917339,-0.02237 v 0.380359 q -0.402734,-0.02237 -0.917339,-0.02237 H 28.7891 v 0.514604 q 0,0.514605 0.02237,0.939713 h -0.49223 q 0.02237,-0.425108 0.02237,-0.894964 v -0.559353 h -1.521439 q -0.626474,0 -1.185827,0.02237 v -0.380359 q 0.536979,0.02237 1.051583,0.02237 0,-0.87259 -0.02237,-1.387195 h 1.678057 v -0.917338 h -1.275323 q -0.469857,0.715971 -0.850216,1.163453 -0.246115,-0.201366 -0.514605,-0.246115 z m 2.640144,1.387195 v -1.051583 h -1.230575 v 1.051583 z M 34.405,33.248217 q -0.87259,0 -1.208202,0.02237 v -0.425108 q 0.447482,0.02237 1.208202,0.02237 0,-0.357985 -0.02237,-0.738345 h 0.49223 q -0.02237,0.290863 -0.02237,0.738345 0.850216,0 1.275323,-0.02237 v 0.425108 q -0.246115,-0.02237 -1.275323,-0.02237 v 0.783093 q 1.297698,0 1.678057,-0.02237 v 0.425108 Q 36.172554,34.41167 35.76982,34.41167 v 0.604101 q 0.604101,0 0.87259,-0.02237 v 0.447482 q -0.313238,-0.02237 -0.87259,-0.02237 v 1.521439 q 0,0.223741 -0.201367,0.313237 -0.178993,0.111871 -0.671223,0.178993 -0.02237,-0.268489 -0.201367,-0.581727 0.38036,0.02237 0.49223,0 0.134245,-0.02237 0.134245,-0.156619 v -1.275323 q -1.924173,0 -2.170288,0.02237 v -0.447482 q 0.693597,0.02237 2.170288,0.02237 V 34.41167 h -1.566187 q -0.268489,0 -0.827842,0.02237 v -0.425108 q 0.514604,0.02237 1.476691,0.02237 z m -1.879425,0.693597 q -0.02237,0.425108 -0.02237,0.894964 v 1.588561 q 0.201367,-0.156618 0.581727,-0.49223 0.06712,0.178993 0.223741,0.402734 -0.38036,0.268489 -0.671223,0.49223 -0.268489,0.223741 -0.425108,0.402734 -0.156619,-0.246115 -0.335612,-0.425108 0.156619,-0.111871 0.178993,-0.38036 v -2.080791 q -0.38036,0 -0.715971,0.02237 V 33.91944 q 0.335611,0.02237 1.185827,0.02237 z M 32.27946,32.353253 q 0.223741,0.357985 0.514604,0.939712 -0.246115,0.04475 -0.447482,0.201367 -0.290863,-0.648849 -0.514604,-0.939712 0.201367,-0.0895 0.447482,-0.201367 z m 1.834676,3.378489 q 0.201367,0.268489 0.402734,0.76072 -0.223741,0.06712 -0.425108,0.201366 -0.0895,-0.335611 -0.380359,-0.783093 0.223741,-0.06712 0.402733,-0.178993 z m 5.280288,0.738345 v -1.342446 q 0,-0.335611 -0.02237,-0.6041 h 0.402734 q -0.02237,0.290863 -0.02237,0.6041 v 1.275324 q 0.246115,-0.04475 0.335611,-0.06712 v -2.371655 q -0.6041,0 -0.87259,0.02237 v -0.402734 q 0.26849,0.02238 1.74518,0.02238 0,-0.246116 -0.02237,-0.626475 0,-0.38036 0,-0.783094 0.223741,0.02237 0.49223,0.0895 -0.06712,0.268489 -0.06712,0.648849 v 0.671223 q 0.559353,0 0.894964,-0.02238 v 0.402734 q -0.335611,-0.02237 -0.894964,-0.02237 0,0.671223 0.04475,1.25295 0.06712,0.581726 0.156619,0.939712 0.0895,0.357986 0.246115,0.604101 0.178993,0.246115 0.201367,-0.335612 0.201367,0.201367 0.38036,0.313238 -0.178993,0.626475 -0.335612,0.648849 -0.156618,0.04475 -0.425108,-0.223741 -0.268489,-0.26849 -0.425108,-0.827842 -0.156618,-0.581727 -0.201367,-1.096331 -0.02237,-0.536979 -0.04475,-1.275324 h -0.514604 v 0.87259 h 0.402734 v 0.335612 h -0.402734 v 1.096331 q 0.178993,-0.06712 0.469856,-0.156619 -0.02237,0.223741 0,0.402734 -0.469856,0.06712 -0.917338,0.201367 -0.425108,0.134244 -0.760719,0.246115 -0.0895,-0.313238 -0.156619,-0.447482 z m -0.402734,-3.98259 q -0.02237,0.469857 -0.02237,1.543813 0.02237,1.051583 0.04475,1.655684 H 38.611331 V 32.800735 H 37.62687 v 2.975755 h -0.380359 q 0.02237,-0.648849 0.02237,-1.722805 0,-1.096331 -0.02237,-1.566188 z m -0.626474,0.850216 q -0.06712,0.201367 -0.06712,0.671223 0.02237,0.469856 -0.02237,1.051583 -0.02237,0.559353 -0.246115,1.185827 -0.223741,0.604101 -0.626475,1.118706 -0.178993,-0.178993 -0.380359,-0.313238 0.335611,-0.290863 0.514604,-0.671223 0.201367,-0.38036 0.290863,-0.827842 0.0895,-0.447482 0.0895,-1.006834 0.02237,-0.559353 0,-1.230576 0.156618,0 0.447482,0.02237 z m 2.304532,-0.246115 q -0.290863,-0.02237 -0.604101,-0.02237 -0.290863,0 -0.626475,0.02237 v -0.402734 q 0.335612,0.02237 0.626475,0.02237 0.313238,0 0.604101,-0.02237 z m -1.610935,3.378489 q -0.201367,0.134245 -0.335612,0.313238 -0.156619,-0.290863 -0.559352,-0.693597 0.201367,-0.111871 0.335611,-0.290864 0.268489,0.335612 0.559353,0.671223 z m 2.796762,-3.870719 q 0.223741,0.38036 0.335612,0.626475 -0.223741,0.0895 -0.357986,0.201367 -0.178993,-0.447482 -0.313237,-0.626475 0.156619,-0.111871 0.335611,-0.201367 z m 4.407698,-0.357986 q 0.268489,0.06712 0.514605,0.06712 -0.04475,0.223741 -0.06712,0.514604 0,0.268489 0,0.671223 h 1.25295 q -0.02237,0.290863 -0.04475,0.648849 l -0.111871,2.550647 q -0.06712,0.447482 -0.38036,0.536979 -0.290863,0.11187 -0.671223,0.156619 -0.06712,-0.26849 -0.223741,-0.492231 0.492231,0.02237 0.671223,-0.04475 0.178993,-0.0895 0.178993,-0.313237 l 0.134245,-2.662518 h -0.805468 q -0.04475,0.98446 -0.156618,1.499065 -0.0895,0.514604 -0.313238,0.962086 -0.201367,0.425108 -0.850216,1.118705 -0.223741,-0.223741 -0.402734,-0.290863 0.425108,-0.335612 0.693598,-0.693598 0.268489,-0.380359 0.380359,-0.760719 0.111871,-0.402734 0.156619,-0.827842 0.04475,-0.425108 0.06712,-1.006834 h -0.380359 q -0.246116,0 -0.581727,0.02237 v -0.425108 q 0.335611,0.02237 0.626475,0.02237 h 0.335611 v -0.626475 q 0,-0.313237 -0.02237,-0.626475 z m -3.445611,1.901799 q 0.335611,0.02237 0.805467,0.02237 h 0.850216 q 0.402734,0 0.917338,-0.02237 v 0.402734 q -0.514604,-0.02237 -0.894964,-0.02237 h -0.246115 q -0.134244,0.357985 -0.313237,0.760719 -0.156619,0.402734 -0.38036,0.805468 0.87259,-0.0895 1.320072,-0.178993 -0.111871,-0.268489 -0.357986,-0.671223 0.246115,-0.134245 0.357986,-0.223741 0.223741,0.402734 0.38036,0.693597 0.156618,0.268489 0.335611,0.671223 -0.178993,0.111871 -0.402734,0.223741 -0.0895,-0.201367 -0.156618,-0.335611 -0.715972,0.11187 -1.163454,0.178992 -0.425108,0.06712 -0.738345,0.178993 -0.0895,-0.223741 -0.223741,-0.425108 0.290863,-0.178993 0.514604,-0.715971 0.246116,-0.536978 0.357986,-0.962086 h -0.156619 q -0.469856,0 -0.805467,0.02237 z m 1.543813,-1.25295 q 0.380359,0 0.850215,-0.02237 v 0.425108 q -0.469856,-0.02237 -0.850215,-0.02237 h -0.536979 q -0.357985,0 -0.693597,0.02237 v -0.425108 q 0.313237,0.02237 0.671223,0.02237 z m 8.054676,-0.134244 q 0.49223,0 1.006835,-0.04475 v 0.492231 q -0.514605,-0.02237 -0.962087,-0.02237 h -0.38036 v 3.445611 h 0.514605 q 0.514604,0 1.118705,-0.02237 v 0.469856 q -0.604101,-0.02237 -1.118705,-0.02237 h -1.409569 q -0.514604,0 -1.163453,0.02237 v -0.469856 q 0.648849,0.02237 1.163453,0.02237 h 0.425108 v -3.445611 h -0.246115 q -0.49223,0 -1.029208,0.02237 v -0.469856 q 0.559352,0.02237 1.029208,0.02237 z m -2.259784,2.684892 q -0.223741,0.223741 -0.49223,0.87259 -0.26849,0.648849 -0.425108,1.096331 -0.26849,-0.156619 -0.626475,-0.290864 0.246115,-0.246115 0.559352,-0.894964 0.335612,-0.671223 0.447482,-1.051582 0.26849,0.178992 0.536979,0.268489 z m -1.431943,-1.610935 q 0.559353,0.223741 1.051583,0.514604 -0.178993,0.178993 -0.268489,0.469856 -0.469856,-0.335612 -1.006835,-0.559353 0.134245,-0.223741 0.223741,-0.425107 z m 0.447482,-1.476691 q 0.514605,0.290863 0.962087,0.604101 -0.178993,0.201367 -0.313238,0.425108 -0.469856,-0.402734 -0.894964,-0.648849 0.111871,-0.134245 0.246115,-0.38036 z m 9.039137,0.156619 q -0.134244,0.156618 -0.290863,0.425108 -0.134245,0.268489 -0.246115,0.49223 h 0.49223 q 0.469856,0 0.827842,-0.02237 v 0.425108 q -0.290864,-0.02237 -0.76072,-0.02237 h -1.163453 v 1.118705 h 1.409568 q 0.447482,0 0.805468,-0.02237 v 0.425108 q -0.357986,-0.02237 -0.760719,-0.02237 H 57.15946 q 0.671223,1.141079 2.23741,1.476691 -0.201366,0.223741 -0.357985,0.536978 -1.409568,-0.469856 -2.12554,-1.633309 -0.380359,0.98446 -2.103165,1.700432 -0.0895,-0.223741 -0.335612,-0.402734 1.722806,-0.469856 2.12554,-1.678058 h -1.185827 q -0.514605,0 -0.850216,0.02237 v -0.402734 q 0.246115,0.02238 0.760719,0.02238 h 1.320072 v -1.14108 h -1.051583 q -0.425108,0 -0.760719,0.02237 v -0.425108 q 0.335611,0.02237 0.783093,0.02237 h 1.610936 q 0.313237,-0.715972 0.447482,-1.185828 0.223741,0.134245 0.536978,0.26849 z m -2.282158,-0.246116 q 0.290863,0.357986 0.604101,0.850216 -0.26849,0.134245 -0.425108,0.26849 -0.26849,-0.514605 -0.536979,-0.850216 0.201367,-0.134245 0.357986,-0.26849 z"
         id="path16" /></g><path
       d="m 63.065289,78.426287 c -0.920333,-0.493308 -1.804,-0.956039 -2.108333,-1.053885 -0.718666,-0.228308 -2.375999,-0.858193 -3.105665,-0.850039 -0.535333,0.0081 -1.037665,0.175307 -1.506999,0.51777 l -2.456666,2.058847 -0.462,0.264999 -0.461999,-0.264999 -2.456668,-2.058847 c -0.469333,-0.342463 -0.971665,-0.511655 -1.506998,-0.51777 -0.729667,-0.0081 -2.387,0.621731 -3.105665,0.850039 l -1.708668,0.540193 -11.828662,1.439154 c -0.762666,0.313924 -5.793332,3.369579 -4.854665,3.477617 h 20.896327 0.01466 4.399999 19.631326 V 80.301672 L 68.84395,79.357864 c -1.158666,-0.30373 -2.357667,0.19977 -2.988332,0.368963 v -3.756888 h 5.943665 c 0.594,-0.03874 0.729667,-0.440307 0.458332,-0.615615 l -0.363,-0.234422 -3.296332,-2.152617 h 2.196332 c 0.520667,-0.05504 0.751667,-0.454577 0.297001,-0.703271 l -3.780331,-2.462462 h 0.997332 c 0.696666,0 1.037666,-0.334307 0.637999,-0.654346 L 65.257951,66.75405 c -0.212666,-0.136579 -0.425333,-0.322076 -0.780999,-0.328192 -0.410668,-0.0062 -0.667332,0.224231 -0.901999,0.381193 l -3.472333,2.291232 c -0.447333,0.334307 -0.274999,0.693077 0.421667,0.680846 h 1.110999 l -3.805999,2.486925 c -0.418,0.289461 -0.161333,0.701231 0.524334,0.646192 h 1.891999 l 0.102662,0.05708 -3.534665,2.305502 c -0.396,0.338384 -0.209001,0.744038 0.718666,0.697154 h 5.532998 z M 39.73063,67.131168 c 0.590333,-0.112116 1.209999,-0.0795 1.730666,0.06115 0.520667,0.140654 0.945999,0.395462 1.147666,0.723654 0.201667,0.328192 0.146666,0.672693 -0.109993,0.962154 -0.252999,0.289462 -0.711333,0.525924 -1.301667,0.638038 -0.590332,0.112116 -1.209999,0.08154 -1.730665,-0.06115 -0.520666,-0.140655 -0.945999,-0.395462 -1.147667,-0.723654 -0.201666,-0.328192 -0.146665,-0.672693 0.109994,-0.962154 0.256665,-0.289462 0.707667,-0.523886 1.301666,-0.638038 z m 5.855665,3.5245 c -0.088,-0.179384 0.106335,-0.364884 0.428999,-0.41177 0.322667,-0.04891 0.656333,0.05911 0.740667,0.238501 l 0.194333,0.399538 0.02566,-0.0062 0.0073,-0.0019 c 0.231,-0.04281 0.498667,-0.0163 0.733333,0.06115 0.168666,0.05504 0.319,0.134544 0.425334,0.234424 0.109992,0.09988 0.176,0.218115 0.176,0.348576 -0.0036,0.187539 -0.150335,0.395461 -0.524335,0.603384 -0.01466,0.0081 -0.03299,0.0163 -0.055,0.01834 l -0.165001,0.03668 1.730667,3.587694 c -0.109992,-0.0081 -0.223667,-0.0163 -0.333667,-0.0163 -0.267666,-0.0041 -0.568333,0.03464 -0.879999,0.09581 l -1.65,-3.41848 -0.425333,0.09377 v 0 l -0.157667,0.03261 c -0.920333,0.181424 -1.591332,0.313924 -2.760999,0.152885 -0.0073,-0.0019 -0.01466,-0.0019 -0.02566,-0.0041 -0.817667,-0.175295 -1.242999,-0.421948 -1.653666,-0.662486 l -0.05867,-0.03466 -0.524333,1.850924 c 0.469332,0.163077 0.934998,0.285385 1.374998,0.399538 1.338333,0.34654 2.438333,0.633964 2.676667,1.802001 0.044,0.209963 0.02201,0.407694 0.0036,0.621733 v 0.0041 c -0.0036,0.03057 -0.0073,0.06319 -0.01095,0.140654 l -0.509668,0.160989 c -0.579333,0.0204 -1.232,0.08969 -1.921333,0.191615 0.01095,-0.154923 0.02566,-0.307807 0.04034,-0.460693 l 0.01095,-0.106005 c 0.01095,-0.122311 0.02201,-0.234423 0.01095,-0.340422 -0.01095,-0.09988 -0.044,-0.193655 -0.120997,-0.285385 l -0.02201,-0.02447 c -0.08433,-0.09988 -0.161334,-0.195691 -0.274999,-0.224229 -0.231001,-0.05911 -0.590334,-0.132507 -1.004667,-0.207924 -0.473,-0.08765 -1.001,-0.175308 -1.466666,-0.246654 -0.341001,0.629885 -0.806666,1.045731 -1.301667,1.769387 -0.172333,0.248691 -0.344665,0.493307 -0.524332,0.72773 -0.168667,0.04077 -0.326334,0.0795 -0.480334,0.118224 -0.762666,0.189576 -1.290665,0.336347 -2.101,0.240538 -0.08433,-0.01018 -0.172332,-0.01834 -0.260333,-0.02853 0.326333,-0.470886 0.671,-1.002924 1.008333,-1.53904 0.506,-0.803153 0.99,-1.280154 1.345667,-1.936539 -0.212667,-0.144741 -0.414333,-0.305779 -0.553667,-0.485164 -0.154,-0.195692 -0.227333,-0.409731 -0.150333,-0.638039 l 0.744333,-2.240269 -0.04033,-0.0019 c -0.260333,-0.0062 -0.473,-0.01227 -0.718666,0.04893 -0.341001,0.08357 -0.605001,0.25073 -0.905667,0.438268 -0.120996,0.07543 -0.245667,0.154923 -0.388668,0.234423 l -0.01095,0.0041 c -0.106335,0.06116 -0.216334,0.124348 -0.322667,0.183462 l -1.316334,0.739963 c -0.05867,0.03261 -0.146666,0.03261 -0.205332,0 l -1.433623,-0.837853 c -0.055,-0.03261 -0.055,-0.08357 0.0036,-0.114151 l 1.312666,-0.737923 c 0.113665,-0.06319 0.212666,-0.120275 0.304334,-0.17327 l 0.01466,-0.0081 c 0.590333,-0.35877 1.074333,-0.648231 1.690333,-0.841886 0.627,-0.195691 1.375,-0.295575 2.496999,-0.267037 h 0.0036 c 0.399667,0.0019 0.872668,0.02651 1.261334,0.04687 0.179667,0.0081 0.344666,0.01834 0.480333,0.02241 1.888333,0.06931 2.775666,0.621733 3.461332,1.051848 0.304333,0.189576 0.564666,0.354692 0.850667,0.430115 0.131999,0.03464 0.344666,-0.01427 0.583,-0.06931 0.142999,-0.03466 0.296999,-0.06931 0.458333,-0.09377 0.106335,-0.02241 0.161332,-0.03464 0.205333,-0.04281 0.05867,-0.01227 0.09533,-0.02038 0.120996,-0.02651 l 0.560999,-0.124348 z"
       id="path1-1"
       style="stroke-width:0.273392" /></g></svg>
