<?xml version="1.0" encoding="UTF-8" standalone="no"?>
<!-- Created with Inkscape (http://www.inkscape.org/) -->

<svg
   width="100mm"
   height="100mm"
   viewBox="0 0 100 100"
   version="1.1"
   id="svg1"
   inkscape:version="1.3.2 (091e20e, 2023-11-25, custom)"
   sodipodi:docname="pcwang_gis.svg"
   xml:space="preserve"
   xmlns:inkscape="http://www.inkscape.org/namespaces/inkscape"
   xmlns:sodipodi="http://sodipodi.sourceforge.net/DTD/sodipodi-0.dtd"
   xmlns:xlink="http://www.w3.org/1999/xlink"
   xmlns="http://www.w3.org/2000/svg"
   xmlns:svg="http://www.w3.org/2000/svg"><sodipodi:namedview
     id="namedview1"
     pagecolor="#ffffff"
     bordercolor="#000000"
     borderopacity="0.25"
     inkscape:showpageshadow="2"
     inkscape:pageopacity="0.0"
     inkscape:pagecheckerboard="0"
     inkscape:deskcolor="#d1d1d1"
     inkscape:document-units="mm"
     inkscape:zoom="3.2480499"
     inkscape:cx="267.08333"
     inkscape:cy="189.19044"
     inkscape:window-width="3840"
     inkscape:window-height="2054"
     inkscape:window-x="-11"
     inkscape:window-y="-11"
     inkscape:window-maximized="1"
     inkscape:current-layer="layer1" /><defs
     id="defs1"><linearGradient
       id="linearGradient6"
       inkscape:collect="always"><stop
         style="stop-color:#050505;stop-opacity:1;"
         offset="0"
         id="stop6" /><stop
         style="stop-color:#050505;stop-opacity:0;"
         offset="1"
         id="stop7" /></linearGradient><linearGradient
       inkscape:collect="always"
       xlink:href="#linearGradient6"
       id="linearGradient7"
       x1="15.287557"
       y1="50.351144"
       x2="25.776083"
       y2="50.351144"
       gradientUnits="userSpaceOnUse" /><linearGradient
       inkscape:collect="always"
       xlink:href="#linearGradient6"
       id="linearGradient8"
       x1="51.50156"
       y1="51.988342"
       x2="56.489281"
       y2="51.988342"
       gradientUnits="userSpaceOnUse" /><linearGradient
       inkscape:collect="always"
       xlink:href="#linearGradient6"
       id="linearGradient9"
       x1="81.318075"
       y1="53.226303"
       x2="90.734975"
       y2="53.226303"
       gradientUnits="userSpaceOnUse" /></defs><g
     inkscape:label="图层 1"
     inkscape:groupmode="layer"
     id="layer1"><ellipse
       style="fill:#117cbd;fill-opacity:0;stroke:#1586e2;stroke-width:5;stroke-dasharray:none;stroke-opacity:1"
       id="path1"
       cx="49.975182"
       cy="50.138096"
       rx="43.46664"
       ry="43.466637" /><text
       xml:space="preserve"
       style="font-size:49.5855px;font-family:Sans;-inkscape-font-specification:'Sans, Normal';fill:#fffefe;fill-opacity:0;stroke:#552f1b;stroke-width:2.26800001;stroke-dasharray:none;stroke-opacity:1"
       x="10.885716"
       y="87.610603"
       id="text1"
       transform="scale(1.4137338,0.70734674)"><tspan
         sodipodi:role="line"
         id="tspan1"
         style="stroke-width:2.26800001;stroke-dasharray:none;stroke:#552f1b;stroke-opacity:1"
         x="10.885716"
         y="87.610603">W</tspan></text><text
       xml:space="preserve"
       style="font-size:16.4164px;font-family:Sans;-inkscape-font-specification:'Sans, Normal';fill:#fffefe;fill-opacity:0;stroke:#d4a13f;stroke-width:1.49999997;stroke-dasharray:none;stroke-opacity:1"
       x="26.355738"
       y="54.816601"
       id="text2"
       transform="scale(1.158252,0.86337001)"><tspan
         sodipodi:role="line"
         id="tspan2"
         style="stroke-width:1.49999997;stroke-dasharray:none;stroke:#d4a13f;stroke-opacity:1"
         x="26.355738"
         y="54.816601">P</tspan></text><text
       xml:space="preserve"
       style="font-size:14.2061px;font-family:Sans;-inkscape-font-specification:'Sans, Normal';fill:#fffefe;fill-opacity:0;stroke:#d4a13f;stroke-width:1.49999998;stroke-dasharray:none;stroke-opacity:1"
       x="58.2248"
       y="47.281219"
       id="text3"
       transform="scale(1.0064095,0.99363135)"><tspan
         sodipodi:role="line"
         id="tspan3"
         style="stroke-width:1.49999998;stroke-dasharray:none;stroke:#d4a13f;stroke-opacity:1"
         x="58.2248"
         y="47.281219">C</tspan></text><text
       xml:space="preserve"
       style="font-style:normal;font-variant:normal;font-weight:normal;font-stretch:normal;font-size:14.6607px;font-family:Sans;-inkscape-font-specification:'Sans, Normal';font-variant-ligatures:normal;font-variant-caps:normal;font-variant-numeric:normal;font-variant-east-asian:normal;fill:#3d2323;fill-opacity:0;stroke:#c55f37;stroke-width:1.49874;stroke-linecap:round;stroke-dasharray:none;stroke-opacity:1"
       x="16.070944"
       y="52.708153"
       id="text4"
       transform="scale(0.87049939,1.1487659)"><tspan
         sodipodi:role="line"
         id="tspan4"
         style="font-style:normal;font-variant:normal;font-weight:normal;font-stretch:normal;font-size:14.6607px;font-family:Sans;-inkscape-font-specification:'Sans, Normal';font-variant-ligatures:normal;font-variant-caps:normal;font-variant-numeric:normal;font-variant-east-asian:normal;fill:#3d2323;fill-opacity:0;stroke:#c55f37;stroke-width:1.49874;stroke-linecap:round;stroke-dasharray:none;stroke-opacity:1"
         x="16.070944"
         y="52.708153">G</tspan></text><text
       xml:space="preserve"
       style="font-style:normal;font-variant:normal;font-weight:normal;font-stretch:normal;font-size:15.6513px;font-family:Sans;-inkscape-font-specification:'Sans, Normal';font-variant-ligatures:normal;font-variant-caps:normal;font-variant-numeric:normal;font-variant-east-asian:normal;fill:#3d2323;fill-opacity:0;stroke:#c55f37;stroke-width:1.6;stroke-linecap:round;stroke-dasharray:none;stroke-opacity:1"
       x="50.705952"
       y="56.535774"
       id="text5"
       transform="scale(0.92866429,1.0768154)"><tspan
         sodipodi:role="line"
         id="tspan5"
         style="font-style:normal;font-variant:normal;font-weight:normal;font-stretch:normal;font-size:15.6513px;font-family:Sans;-inkscape-font-specification:'Sans, Normal';font-variant-ligatures:normal;font-variant-caps:normal;font-variant-numeric:normal;font-variant-east-asian:normal;fill:#3d2323;fill-opacity:0;stroke:#c55f37;stroke-width:1.6;stroke-linecap:round;stroke-dasharray:none;stroke-opacity:1"
         x="50.705952"
         y="56.535774">I</tspan></text><text
       xml:space="preserve"
       style="font-style:normal;font-variant:normal;font-weight:normal;font-stretch:normal;font-size:15.9138px;font-family:Sans;-inkscape-font-specification:'Sans, Normal';font-variant-ligatures:normal;font-variant-caps:normal;font-variant-numeric:normal;font-variant-east-asian:normal;fill:#3d2323;fill-opacity:0;stroke:#c55f37;stroke-width:1.62684;stroke-linecap:round;stroke-dasharray:none;stroke-opacity:1"
       x="79.344543"
       y="58.3895"
       id="text6"
       transform="scale(0.96320193,1.0382039)"><tspan
         sodipodi:role="line"
         id="tspan6"
         style="font-style:normal;font-variant:normal;font-weight:normal;font-stretch:normal;font-size:15.9138px;font-family:Sans;-inkscape-font-specification:'Sans, Normal';font-variant-ligatures:normal;font-variant-caps:normal;font-variant-numeric:normal;font-variant-east-asian:normal;fill:#3d2323;fill-opacity:0;stroke:#c55f37;stroke-width:1.62684;stroke-linecap:round;stroke-dasharray:none;stroke-opacity:1"
         x="79.344543"
         y="58.3895">S</tspan></text><text
       xml:space="preserve"
       style="font-style:normal;font-variant:normal;font-weight:normal;font-stretch:normal;font-size:5.72777px;font-family:SimHei;-inkscape-font-specification:'SimHei, Normal';font-variant-ligatures:normal;font-variant-caps:normal;font-variant-numeric:normal;font-variant-east-asian:normal;fill:#000000;fill-opacity:0;stroke:#c55f37;stroke-width:0.161;stroke-linecap:round;stroke-dasharray:none;stroke-opacity:1;stroke-dashoffset:0"
       x="19.660467"
       y="29.690735"
       id="text9"
       transform="scale(1.2385625,0.8073876)"><tspan
         sodipodi:role="line"
         id="tspan9"
         style="font-style:normal;font-variant:normal;font-weight:normal;font-stretch:normal;font-size:5.72777px;font-family:SimHei;-inkscape-font-specification:'SimHei, Normal';font-variant-ligatures:normal;font-variant-caps:normal;font-variant-numeric:normal;font-variant-east-asian:normal;fill:#000000;fill-opacity:0;stroke-width:0.161;stroke-dasharray:none;stroke-dashoffset:0"
         x="19.660467"
         y="29.690735">庾信平生最萧瑟 </tspan><tspan
         sodipodi:role="line"
         style="font-style:normal;font-variant:normal;font-weight:normal;font-stretch:normal;font-size:5.72777px;font-family:SimHei;-inkscape-font-specification:'SimHei, Normal';font-variant-ligatures:normal;font-variant-caps:normal;font-variant-numeric:normal;font-variant-east-asian:normal;fill:#000000;fill-opacity:0;stroke-width:0.161;stroke-dasharray:none;stroke-dashoffset:0"
         x="19.660467"
         y="36.850449"
         id="tspan10">暮年诗赋动江关</tspan></text><path
       d="m 63.065289,78.426287 c -0.920333,-0.493308 -1.804,-0.956039 -2.108333,-1.053885 -0.718666,-0.228308 -2.375999,-0.858193 -3.105665,-0.850039 -0.535333,0.0081 -1.037665,0.175307 -1.506999,0.51777 l -2.456666,2.058847 -0.462,0.264999 -0.461999,-0.264999 -2.456668,-2.058847 c -0.469333,-0.342463 -0.971665,-0.511655 -1.506998,-0.51777 -0.729667,-0.0081 -2.387,0.621731 -3.105665,0.850039 l -1.708668,0.540193 -11.828662,1.439154 c -0.762666,0.313924 -5.793332,3.369579 -4.854665,3.477617 h 20.896327 0.01466 4.399999 19.631326 V 80.301672 L 68.84395,79.357864 c -1.158666,-0.30373 -2.357667,0.19977 -2.988332,0.368963 v -3.756888 h 5.943665 c 0.594,-0.03874 0.729667,-0.440307 0.458332,-0.615615 l -0.363,-0.234422 -3.296332,-2.152617 h 2.196332 c 0.520667,-0.05504 0.751667,-0.454577 0.297001,-0.703271 l -3.780331,-2.462462 h 0.997332 c 0.696666,0 1.037666,-0.334307 0.637999,-0.654346 L 65.257951,66.75405 c -0.212666,-0.136579 -0.425333,-0.322076 -0.780999,-0.328192 -0.410668,-0.0062 -0.667332,0.224231 -0.901999,0.381193 l -3.472333,2.291232 c -0.447333,0.334307 -0.274999,0.693077 0.421667,0.680846 h 1.110999 l -3.805999,2.486925 c -0.418,0.289461 -0.161333,0.701231 0.524334,0.646192 h 1.891999 l 0.102662,0.05708 -3.534665,2.305502 c -0.396,0.338384 -0.209001,0.744038 0.718666,0.697154 h 5.532998 z M 39.73063,67.131168 c 0.590333,-0.112116 1.209999,-0.0795 1.730666,0.06115 0.520667,0.140654 0.945999,0.395462 1.147666,0.723654 0.201667,0.328192 0.146666,0.672693 -0.109993,0.962154 -0.252999,0.289462 -0.711333,0.525924 -1.301667,0.638038 -0.590332,0.112116 -1.209999,0.08154 -1.730665,-0.06115 -0.520666,-0.140655 -0.945999,-0.395462 -1.147667,-0.723654 -0.201666,-0.328192 -0.146665,-0.672693 0.109994,-0.962154 0.256665,-0.289462 0.707667,-0.523886 1.301666,-0.638038 z m 5.855665,3.5245 c -0.088,-0.179384 0.106335,-0.364884 0.428999,-0.41177 0.322667,-0.04891 0.656333,0.05911 0.740667,0.238501 l 0.194333,0.399538 0.02566,-0.0062 0.0073,-0.0019 c 0.231,-0.04281 0.498667,-0.0163 0.733333,0.06115 0.168666,0.05504 0.319,0.134544 0.425334,0.234424 0.109992,0.09988 0.176,0.218115 0.176,0.348576 -0.0036,0.187539 -0.150335,0.395461 -0.524335,0.603384 -0.01466,0.0081 -0.03299,0.0163 -0.055,0.01834 l -0.165001,0.03668 1.730667,3.587694 c -0.109992,-0.0081 -0.223667,-0.0163 -0.333667,-0.0163 -0.267666,-0.0041 -0.568333,0.03464 -0.879999,0.09581 l -1.65,-3.41848 -0.425333,0.09377 v 0 l -0.157667,0.03261 c -0.920333,0.181424 -1.591332,0.313924 -2.760999,0.152885 -0.0073,-0.0019 -0.01466,-0.0019 -0.02566,-0.0041 -0.817667,-0.175295 -1.242999,-0.421948 -1.653666,-0.662486 l -0.05867,-0.03466 -0.524333,1.850924 c 0.469332,0.163077 0.934998,0.285385 1.374998,0.399538 1.338333,0.34654 2.438333,0.633964 2.676667,1.802001 0.044,0.209963 0.02201,0.407694 0.0036,0.621733 v 0.0041 c -0.0036,0.03057 -0.0073,0.06319 -0.01095,0.140654 l -0.509668,0.160989 c -0.579333,0.0204 -1.232,0.08969 -1.921333,0.191615 0.01095,-0.154923 0.02566,-0.307807 0.04034,-0.460693 l 0.01095,-0.106005 c 0.01095,-0.122311 0.02201,-0.234423 0.01095,-0.340422 -0.01095,-0.09988 -0.044,-0.193655 -0.120997,-0.285385 l -0.02201,-0.02447 c -0.08433,-0.09988 -0.161334,-0.195691 -0.274999,-0.224229 -0.231001,-0.05911 -0.590334,-0.132507 -1.004667,-0.207924 -0.473,-0.08765 -1.001,-0.175308 -1.466666,-0.246654 -0.341001,0.629885 -0.806666,1.045731 -1.301667,1.769387 -0.172333,0.248691 -0.344665,0.493307 -0.524332,0.72773 -0.168667,0.04077 -0.326334,0.0795 -0.480334,0.118224 -0.762666,0.189576 -1.290665,0.336347 -2.101,0.240538 -0.08433,-0.01018 -0.172332,-0.01834 -0.260333,-0.02853 0.326333,-0.470886 0.671,-1.002924 1.008333,-1.53904 0.506,-0.803153 0.99,-1.280154 1.345667,-1.936539 -0.212667,-0.144741 -0.414333,-0.305779 -0.553667,-0.485164 -0.154,-0.195692 -0.227333,-0.409731 -0.150333,-0.638039 l 0.744333,-2.240269 -0.04033,-0.0019 c -0.260333,-0.0062 -0.473,-0.01227 -0.718666,0.04893 -0.341001,0.08357 -0.605001,0.25073 -0.905667,0.438268 -0.120996,0.07543 -0.245667,0.154923 -0.388668,0.234423 l -0.01095,0.0041 c -0.106335,0.06116 -0.216334,0.124348 -0.322667,0.183462 l -1.316334,0.739963 c -0.05867,0.03261 -0.146666,0.03261 -0.205332,0 l -1.433623,-0.837853 c -0.055,-0.03261 -0.055,-0.08357 0.0036,-0.114151 l 1.312666,-0.737923 c 0.113665,-0.06319 0.212666,-0.120275 0.304334,-0.17327 l 0.01466,-0.0081 c 0.590333,-0.35877 1.074333,-0.648231 1.690333,-0.841886 0.627,-0.195691 1.375,-0.295575 2.496999,-0.267037 h 0.0036 c 0.399667,0.0019 0.872668,0.02651 1.261334,0.04687 0.179667,0.0081 0.344666,0.01834 0.480333,0.02241 1.888333,0.06931 2.775666,0.621733 3.461332,1.051848 0.304333,0.189576 0.564666,0.354692 0.850667,0.430115 0.131999,0.03464 0.344666,-0.01427 0.583,-0.06931 0.142999,-0.03466 0.296999,-0.06931 0.458333,-0.09377 0.106335,-0.02241 0.161332,-0.03464 0.205333,-0.04281 0.05867,-0.01227 0.09533,-0.02038 0.120996,-0.02651 l 0.560999,-0.124348 z"
       id="path1-1"
       style="stroke-width:0.273392" /></g></svg>
